<?xml version="1.0" encoding="UTF-8" standalone="no"?>
<svg
   xmlns:dc="http://purl.org/dc/elements/1.1/"
   xmlns:cc="http://creativecommons.org/ns#"
   xmlns:rdf="http://www.w3.org/1999/02/22-rdf-syntax-ns#"
   xmlns:svg="http://www.w3.org/2000/svg"
   xmlns="http://www.w3.org/2000/svg"
   xmlns:xlink="http://www.w3.org/1999/xlink"
   xmlns:sodipodi="http://sodipodi.sourceforge.net/DTD/sodipodi-0.dtd"
   xmlns:inkscape="http://www.inkscape.org/namespaces/inkscape"
   x="0px"
   y="0px"
   viewBox="0 0 184.347 184.347"
   version="1.1"
   id="svg144"
   sodipodi:docname="lizard.svg"
   width="184.347"
   height="184.347"
   inkscape:version="0.92.1 r15371">
  <metadata
     id="metadata191">
    <rdf:RDF>
      <cc:Work
         rdf:about="">
        <dc:format>image/svg+xml</dc:format>
        <dc:type
           rdf:resource="http://purl.org/dc/dcmitype/StillImage" />
        <dc:title></dc:title>
      </cc:Work>
    </rdf:RDF>
  </metadata>
  <defs
     id="defs189">
    <clipPath
       id="use3420_2_-4">
      <use
         xlink:href="#use3420_1_-0"
         style="overflow:visible"
         id="use10-9"
         x="0"
         y="0"
         width="100%"
         height="100%" />
    </clipPath>
    <clipPath
       id="clipPath4633">
      <use
         xlink:href="#use3420_1_-0"
         style="overflow:visible"
         id="use4631"
         x="0"
         y="0"
         width="100%"
         height="100%" />
    </clipPath>
    <clipPath
       id="clipPath4637">
      <use
         xlink:href="#use3420_1_-0"
         style="overflow:visible"
         id="use4635"
         x="0"
         y="0"
         width="100%"
         height="100%" />
    </clipPath>
    <clipPath
       id="clipPath4641">
      <use
         xlink:href="#use3420_1_-0"
         style="overflow:visible"
         id="use4639"
         x="0"
         y="0"
         width="100%"
         height="100%" />
    </clipPath>
    <clipPath
       id="clipPath4645">
      <use
         xlink:href="#use3420_1_-0"
         style="overflow:visible"
         id="use4643"
         x="0"
         y="0"
         width="100%"
         height="100%" />
    </clipPath>
    <clipPath
       id="clipPath4649">
      <use
         xlink:href="#use3420_1_-0"
         style="overflow:visible"
         id="use4647"
         x="0"
         y="0"
         width="100%"
         height="100%" />
    </clipPath>
    <path
       id="use3420_1_-0"
       d="m -64.9,-984.4 c 166,0 300.5,134.6 300.5,300.5 0,165.9 -134.5,300.6 -300.5,300.6 -166,0 -300.5,-134.6 -300.5,-300.5 0,-165.9 134.5,-300.6 300.5,-300.6 z"
       inkscape:connector-curvature="0" />
    <clipPath
       id="use3420_2_-3">
      <use
         xlink:href="#use3420_1_-1"
         style="overflow:visible"
         id="use10-8"
         x="0"
         y="0"
         width="100%"
         height="100%" />
    </clipPath>
    <clipPath
       id="clipPath4633-0">
      <use
         xlink:href="#use3420_1_-1"
         style="overflow:visible"
         id="use4631-5"
         x="0"
         y="0"
         width="100%"
         height="100%" />
    </clipPath>
    <clipPath
       id="clipPath4637-4">
      <use
         xlink:href="#use3420_1_-1"
         style="overflow:visible"
         id="use4635-5"
         x="0"
         y="0"
         width="100%"
         height="100%" />
    </clipPath>
    <clipPath
       id="clipPath4641-1">
      <use
         xlink:href="#use3420_1_-1"
         style="overflow:visible"
         id="use4639-9"
         x="0"
         y="0"
         width="100%"
         height="100%" />
    </clipPath>
    <clipPath
       id="clipPath4645-1">
      <use
         xlink:href="#use3420_1_-1"
         style="overflow:visible"
         id="use4643-3"
         x="0"
         y="0"
         width="100%"
         height="100%" />
    </clipPath>
    <clipPath
       id="clipPath4649-1">
      <use
         xlink:href="#use3420_1_-1"
         style="overflow:visible"
         id="use4647-4"
         x="0"
         y="0"
         width="100%"
         height="100%" />
    </clipPath>
    <path
       id="use3420_1_-1"
       d="m -64.9,-984.4 c 166,0 300.5,134.6 300.5,300.5 0,165.9 -134.5,300.6 -300.5,300.6 -166,0 -300.5,-134.6 -300.5,-300.5 0,-165.9 134.5,-300.6 300.5,-300.6 z"
       inkscape:connector-curvature="0" />
    <clipPath
       id="use3420_2_-49">
      <use
         xlink:href="#use3420_1_-5"
         style="overflow:visible"
         id="use10-6"
         x="0"
         y="0"
         width="100%"
         height="100%" />
    </clipPath>
    <clipPath
       id="clipPath4633-1">
      <use
         xlink:href="#use3420_1_-5"
         style="overflow:visible"
         id="use4631-6"
         x="0"
         y="0"
         width="100%"
         height="100%" />
    </clipPath>
    <clipPath
       id="clipPath4637-1">
      <use
         xlink:href="#use3420_1_-5"
         style="overflow:visible"
         id="use4635-0"
         x="0"
         y="0"
         width="100%"
         height="100%" />
    </clipPath>
    <clipPath
       id="clipPath4641-6">
      <use
         xlink:href="#use3420_1_-5"
         style="overflow:visible"
         id="use4639-0"
         x="0"
         y="0"
         width="100%"
         height="100%" />
    </clipPath>
    <clipPath
       id="clipPath4645-13">
      <use
         xlink:href="#use3420_1_-5"
         style="overflow:visible"
         id="use4643-6"
         x="0"
         y="0"
         width="100%"
         height="100%" />
    </clipPath>
    <clipPath
       id="clipPath4649-6">
      <use
         xlink:href="#use3420_1_-5"
         style="overflow:visible"
         id="use4647-5"
         x="0"
         y="0"
         width="100%"
         height="100%" />
    </clipPath>
    <path
       id="use3420_1_-5"
       d="m -64.9,-984.4 c 166,0 300.5,134.6 300.5,300.5 0,165.9 -134.5,300.6 -300.5,300.6 -166,0 -300.5,-134.6 -300.5,-300.5 0,-165.9 134.5,-300.6 300.5,-300.6 z"
       inkscape:connector-curvature="0" />
  </defs>
  <sodipodi:namedview
     pagecolor="#ffffff"
     bordercolor="#666666"
     borderopacity="1"
     objecttolerance="10"
     gridtolerance="10"
     guidetolerance="10"
     inkscape:pageopacity="0"
     inkscape:pageshadow="2"
     inkscape:window-width="1920"
     inkscape:window-height="1027"
     id="namedview187"
     showgrid="false"
     inkscape:zoom="0.78666665"
     inkscape:cx="177.12794"
     inkscape:cy="252.33507"
     inkscape:window-x="-8"
     inkscape:window-y="-8"
     inkscape:window-maximized="1"
     inkscape:current-layer="lizard" />
  <g
     id="lizard"
     transform="matrix(0,0.283393,-0.283393,0,42.399766,-202.40606)"
     class="item"
     style="display:inline">
    <path
       id="path3414"
       style="display:inline;fill:#eeeeee;stroke:#cccccc;stroke-width:24.70067978;stroke-linecap:round;stroke-linejoin:round;stroke-miterlimit:4;stroke-dasharray:none;paint-order:markers fill stroke"
       d="m 1051.8731,-463.73561 c 166,0 300.5,134.6 300.5,300.5 0,165.899996 -134.6,300.5 -300.5,300.5 -165.90003,0 -300.50003,-134.400004 -300.50003,-300.4 0,-166 134.5,-300.6 300.50003,-300.6 z"
       inkscape:connector-curvature="0"
       class="itemBackground" />
    <g
       id="g138"
       style="display:inline"
       transform="translate(97.673066,340.16439)">
      <g
         id="g107">
        <defs
           id="defs101">
          <path
             id="SVGID_1_"
             d="m 954.2,-803.9 c 166,0 300.6,134.5 300.6,300.5 0,166 -134.5,300.6 -300.5,300.6 h -0.1 c -166,0 -300.6,-134.5 -300.6,-300.5 0,-166 134.6,-300.5 300.6,-300.6 z"
             inkscape:connector-curvature="0" />
        </defs>
        <clipPath
           id="SVGID_2_">
          <use
             xlink:href="#SVGID_1_"
             style="overflow:visible"
             id="use103"
             x="0"
             y="0"
             width="100%"
             height="100%" />
        </clipPath>
        <path
           id="path3382"
           style="fill:#ffffff;stroke:#888888;stroke-width:3.52870011;stroke-linecap:round;stroke-linejoin:round"
           d="m 858.5,-518.8 c 0.7,4.5 4.6,27.3 7.6,38.1 3.8,13.3 10.8,30.4 15.1,43.5 3.5,10.9 3.6,26.2 12.2,33.9 9.6,8.6 40.6,6.4 42.3,6.8 l 26.6,-58.2 c -5.3,0.6 -37.4,-31.3 -42.1,-35 0,0 -1.8,-25.7 -3.9,-30.7 -2.1,-5 -12.1,-38.1 -12.1,-38.1 l -0.5,0.2 c -0.9,0.3 4.8,-28.4 4.6,-31.7 -0.1,-3.3 0.1,-26.6 0.1,-26.6 8.5,-13.3 8.2,-25.9 9.3,-32 5.7,-32.1 -14.4,-31.8 -18.9,-29.8 -2.6,1.1 -18.2,35.4 -25.5,50.8 -1.8,3.8 -4.2,7.6 -5.4,11.6 -0.9,3.2 -1.5,9 -2.1,12.3 -0.9,5.4 -4.9,17.5 -5.8,22.9 -1.2,7 -2,16.4 -2.8,23.5 -0.5,4.8 -4.3,13.5 -4,18.3 0.5,3.6 4,11.7 5.3,20.2 z"
           clip-path="url(#SVGID_2_)"
           inkscape:connector-curvature="0" />
      </g>
      <g
         id="g116">
        <defs
           id="defs110">
          <path
             id="SVGID_3_"
             d="m 954.2,-803.9 c 166,0 300.6,134.5 300.6,300.5 0,166 -134.5,300.6 -300.5,300.6 h -0.1 c -166,0 -300.6,-134.5 -300.6,-300.5 0,-166 134.6,-300.5 300.6,-300.6 z"
             inkscape:connector-curvature="0" />
        </defs>
        <clipPath
           id="SVGID_4_">
          <use
             xlink:href="#SVGID_3_"
             style="overflow:visible"
             id="use112"
             x="0"
             y="0"
             width="100%"
             height="100%" />
        </clipPath>
        <path
           id="path3380"
           style="fill:#ffffff;stroke:#888888;stroke-width:3.52870011;stroke-linecap:round;stroke-linejoin:round"
           d="m 828.6,-513.6 c 0.9,5.3 5.4,32.2 9,44.9 4.5,15.7 12.7,35.8 17.8,51.4 4.2,12.9 4.3,31 14.4,40 11.3,10.1 48,7.5 50,8 l 31.4,-68.6 c -6.3,0.7 -38.7,-38.5 -44.2,-42.9 0,0 -7.6,-28.7 -10.1,-34.6 -2.5,-5.9 -14.2,-44.9 -14.2,-44.9 l -0.6,0.2 c -1.1,0.4 5.6,-33.5 5.5,-37.4 -0.2,-3.9 0.2,-31.4 0.2,-31.4 10.1,-15.7 9.7,-30.6 11,-37.8 6.7,-37.9 -17,-37.5 -22.4,-35.2 -3.1,1.3 -21.5,41.8 -30.1,60 -2.1,4.5 -4.9,8.9 -6.3,13.7 -1.1,3.8 -1.8,10.6 -2.4,14.5 -1.1,6.4 -5.8,20.7 -6.9,27 -1.4,8.3 -2.4,19.3 -3.3,27.7 -0.6,5.7 -5,15.9 -4.7,21.6 0.2,4.2 4.3,13.8 5.9,23.8 z"
           clip-path="url(#SVGID_4_)"
           inkscape:connector-curvature="0" />
      </g>
      <g
         id="g125">
        <defs
           id="defs119">
          <path
             id="SVGID_5_"
             d="m 954.2,-803.9 c 166,0 300.6,134.5 300.6,300.5 0,166 -134.5,300.6 -300.5,300.6 h -0.1 c -166,0 -300.6,-134.5 -300.6,-300.5 0,-166 134.6,-300.5 300.6,-300.6 z"
             inkscape:connector-curvature="0" />
        </defs>
        <clipPath
           id="SVGID_6_">
          <use
             xlink:href="#SVGID_5_"
             style="overflow:visible"
             id="use121"
             x="0"
             y="0"
             width="100%"
             height="100%" />
        </clipPath>
        <path
           id="path3378"
           style="fill:#ffffff;stroke:#888888;stroke-width:3.52870011;stroke-linecap:round;stroke-linejoin:round"
           d="m 810,-533.4 c 0.9,5.3 5.4,32.2 9,44.9 4.5,15.7 11.1,36.5 17.8,51.4 9.1,20.3 14.5,66.7 28,67.2 42.2,1.5 83.9,7.5 85.9,8 l -45.3,-86 c -6.3,0.7 -12.8,-34.8 -18.2,-39.2 0,0 -6.4,-42.3 -8.9,-48.3 -2.5,-5.9 -14.2,-44.9 -14.2,-44.9 l -0.6,0.2 c -1.1,0.4 5.6,-33.5 5.5,-37.4 -0.2,-3.9 0.2,-31.4 0.2,-31.4 10.1,-15.7 9.7,-30.6 11,-37.8 6.7,-37.9 -17,-37.5 -22.4,-35.2 -3.1,1.3 -21.5,41.8 -30.1,60 -2.1,4.5 -4.9,8.9 -6.3,13.7 -1.1,3.8 -1.8,10.6 -2.4,14.5 -1.1,6.4 -5.8,20.7 -6.9,27 -1.4,8.3 -2.4,19.3 -3.3,27.7 -0.6,5.7 -5,15.9 -4.7,21.6 0.2,4.4 4.3,14 5.9,24 z"
           clip-path="url(#SVGID_6_)"
           inkscape:connector-curvature="0" />
      </g>
      <g
         id="g136"
         style="display:inline">
        <defs
           id="defs128">
          <path
             id="SVGID_7_"
             d="m 954.2,-803.9 c 166,0 300.6,134.5 300.6,300.5 0,166 -134.5,300.6 -300.5,300.6 h -0.1 c -166,0 -300.6,-134.5 -300.6,-300.5 0,-166 134.6,-300.5 300.6,-300.6 z"
             inkscape:connector-curvature="0" />
        </defs>
        <clipPath
           id="SVGID_8_">
          <use
             xlink:href="#SVGID_7_"
             style="overflow:visible"
             id="use132"
             x="0"
             y="0"
             width="100%"
             height="100%" />
        </clipPath>
        <path
           id="path3373"
           style="fill:#ffffff;stroke:#888888;stroke-width:3.52870011;stroke-linecap:round;stroke-linejoin:round"
           d="m 818.5,-516.4 c 0.9,5.3 5.4,32.2 9,44.9 4.5,15.7 12.7,35.8 17.8,51.4 4.2,12.9 4.3,31 14.4,40 11.3,10.1 48,7.5 50,8 2,0.5 122,37.4 122,37.4 l 112,102.4 83,-95.9 c 0,0 -75.1,-71.9 -82.1,-83.5 -10.7,-17.8 -6.3,-39.3 -24.3,-63.2 -18.4,-24.5 -44,-56.2 -47.4,-62.6 -3.5,-6.4 -31.2,-42.5 -31.2,-42.5 0,0 -24.2,-35.6 -26.1,-42 -2,-6.4 -21.9,-31.1 -21.9,-31.1 0,0 -26.5,-8 -34.1,-11.3 -17.1,-7.6 -35,-27.4 -49,-15 -9.5,8.5 -3.3,37.6 1.1,42.6 3.4,3.8 27,24.9 42,30 4.1,1.4 5.9,3.9 5.9,3.9 0,0 17,28 18.9,41.5 1.7,12.1 5.7,24.7 0.4,35.7 -9.2,18.9 -42.4,59.2 -51.3,60.1 -6.3,0.7 -23.9,-7.6 -29.3,-12 0,0 -8.9,-34.9 -11.3,-40.8 -2.5,-5.9 -14.2,-44.9 -14.2,-44.9 l -0.6,0.2 c -1.1,0.4 5.6,-33.5 5.5,-37.4 -0.2,-3.9 0.2,-31.4 0.2,-31.4 10.1,-15.7 9.7,-30.6 11,-37.8 6.7,-37.9 -17,-37.5 -22.4,-35.2 -3.1,1.3 -21.5,41.8 -30.1,60 -2.1,4.5 -4.9,8.9 -6.3,13.7 -1.1,3.8 -1.8,10.6 -2.4,14.5 -1.1,6.4 -5.8,20.7 -6.9,27 -1.4,8.3 -2.4,19.3 -3.3,27.7 -0.6,5.7 -5,15.9 -4.7,21.6 0,4.4 4.1,14 5.7,24 z"
           clip-path="url(#SVGID_8_)"
           inkscape:connector-curvature="0" />
      </g>
    </g>
  </g>
</svg>
