<?xml version="1.0" encoding="UTF-8" standalone="no"?>
<svg
   xmlns:dc="http://purl.org/dc/elements/1.1/"
   xmlns:cc="http://creativecommons.org/ns#"
   xmlns:rdf="http://www.w3.org/1999/02/22-rdf-syntax-ns#"
   xmlns:svg="http://www.w3.org/2000/svg"
   xmlns="http://www.w3.org/2000/svg"
   xmlns:xlink="http://www.w3.org/1999/xlink"
   xmlns:sodipodi="http://sodipodi.sourceforge.net/DTD/sodipodi-0.dtd"
   xmlns:inkscape="http://www.inkscape.org/namespaces/inkscape"
   x="0px"
   y="0px"
   viewBox="0 0 184.347 184.347"
   version="1.1"
   id="svg144"
   sodipodi:docname="paper.svg"
   width="184.347"
   height="184.347"
   inkscape:version="0.92.1 r15371">
  <metadata
     id="metadata191">
    <rdf:RDF>
      <cc:Work
         rdf:about="">
        <dc:format>image/svg+xml</dc:format>
        <dc:type
           rdf:resource="http://purl.org/dc/dcmitype/StillImage" />
        <dc:title></dc:title>
      </cc:Work>
    </rdf:RDF>
  </metadata>
  <defs
     id="defs189">
    <clipPath
       id="use3420_2_-4">
      <use
         xlink:href="#use3420_1_-0"
         style="overflow:visible"
         id="use10-9"
         x="0"
         y="0"
         width="100%"
         height="100%" />
    </clipPath>
    <clipPath
       id="clipPath4633">
      <use
         xlink:href="#use3420_1_-0"
         style="overflow:visible"
         id="use4631"
         x="0"
         y="0"
         width="100%"
         height="100%" />
    </clipPath>
    <clipPath
       id="clipPath4637">
      <use
         xlink:href="#use3420_1_-0"
         style="overflow:visible"
         id="use4635"
         x="0"
         y="0"
         width="100%"
         height="100%" />
    </clipPath>
    <clipPath
       id="clipPath4641">
      <use
         xlink:href="#use3420_1_-0"
         style="overflow:visible"
         id="use4639"
         x="0"
         y="0"
         width="100%"
         height="100%" />
    </clipPath>
    <clipPath
       id="clipPath4645">
      <use
         xlink:href="#use3420_1_-0"
         style="overflow:visible"
         id="use4643"
         x="0"
         y="0"
         width="100%"
         height="100%" />
    </clipPath>
    <clipPath
       id="clipPath4649">
      <use
         xlink:href="#use3420_1_-0"
         style="overflow:visible"
         id="use4647"
         x="0"
         y="0"
         width="100%"
         height="100%" />
    </clipPath>
    <path
       id="use3420_1_-0"
       d="m -64.9,-984.4 c 166,0 300.5,134.6 300.5,300.5 0,165.9 -134.5,300.6 -300.5,300.6 -166,0 -300.5,-134.6 -300.5,-300.5 0,-165.9 134.5,-300.6 300.5,-300.6 z"
       inkscape:connector-curvature="0" />
    <clipPath
       id="use3420_2_-3">
      <use
         xlink:href="#use3420_1_-1"
         style="overflow:visible"
         id="use10-8"
         x="0"
         y="0"
         width="100%"
         height="100%" />
    </clipPath>
    <clipPath
       id="clipPath4633-0">
      <use
         xlink:href="#use3420_1_-1"
         style="overflow:visible"
         id="use4631-5"
         x="0"
         y="0"
         width="100%"
         height="100%" />
    </clipPath>
    <clipPath
       id="clipPath4637-4">
      <use
         xlink:href="#use3420_1_-1"
         style="overflow:visible"
         id="use4635-5"
         x="0"
         y="0"
         width="100%"
         height="100%" />
    </clipPath>
    <clipPath
       id="clipPath4641-1">
      <use
         xlink:href="#use3420_1_-1"
         style="overflow:visible"
         id="use4639-9"
         x="0"
         y="0"
         width="100%"
         height="100%" />
    </clipPath>
    <clipPath
       id="clipPath4645-1">
      <use
         xlink:href="#use3420_1_-1"
         style="overflow:visible"
         id="use4643-3"
         x="0"
         y="0"
         width="100%"
         height="100%" />
    </clipPath>
    <clipPath
       id="clipPath4649-1">
      <use
         xlink:href="#use3420_1_-1"
         style="overflow:visible"
         id="use4647-4"
         x="0"
         y="0"
         width="100%"
         height="100%" />
    </clipPath>
    <path
       id="use3420_1_-1"
       d="m -64.9,-984.4 c 166,0 300.5,134.6 300.5,300.5 0,165.9 -134.5,300.6 -300.5,300.6 -166,0 -300.5,-134.6 -300.5,-300.5 0,-165.9 134.5,-300.6 300.5,-300.6 z"
       inkscape:connector-curvature="0" />
    <clipPath
       id="use3420_2_-49">
      <use
         xlink:href="#use3420_1_-5"
         style="overflow:visible"
         id="use10-6"
         x="0"
         y="0"
         width="100%"
         height="100%" />
    </clipPath>
    <clipPath
       id="clipPath4633-1">
      <use
         xlink:href="#use3420_1_-5"
         style="overflow:visible"
         id="use4631-6"
         x="0"
         y="0"
         width="100%"
         height="100%" />
    </clipPath>
    <clipPath
       id="clipPath4637-1">
      <use
         xlink:href="#use3420_1_-5"
         style="overflow:visible"
         id="use4635-0"
         x="0"
         y="0"
         width="100%"
         height="100%" />
    </clipPath>
    <clipPath
       id="clipPath4641-6">
      <use
         xlink:href="#use3420_1_-5"
         style="overflow:visible"
         id="use4639-0"
         x="0"
         y="0"
         width="100%"
         height="100%" />
    </clipPath>
    <clipPath
       id="clipPath4645-13">
      <use
         xlink:href="#use3420_1_-5"
         style="overflow:visible"
         id="use4643-6"
         x="0"
         y="0"
         width="100%"
         height="100%" />
    </clipPath>
    <clipPath
       id="clipPath4649-6">
      <use
         xlink:href="#use3420_1_-5"
         style="overflow:visible"
         id="use4647-5"
         x="0"
         y="0"
         width="100%"
         height="100%" />
    </clipPath>
    <path
       id="use3420_1_-5"
       d="m -64.9,-984.4 c 166,0 300.5,134.6 300.5,300.5 0,165.9 -134.5,300.6 -300.5,300.6 -166,0 -300.5,-134.6 -300.5,-300.5 0,-165.9 134.5,-300.6 300.5,-300.6 z"
       inkscape:connector-curvature="0" />
  </defs>
  <sodipodi:namedview
     pagecolor="#ffffff"
     bordercolor="#666666"
     borderopacity="1"
     objecttolerance="10"
     gridtolerance="10"
     guidetolerance="10"
     inkscape:pageopacity="0"
     inkscape:pageshadow="2"
     inkscape:window-width="1920"
     inkscape:window-height="1027"
     id="namedview187"
     showgrid="false"
     inkscape:zoom="0.78666665"
     inkscape:cx="177.12794"
     inkscape:cy="252.33507"
     inkscape:window-x="-8"
     inkscape:window-y="-8"
     inkscape:window-maximized="1"
     inkscape:current-layer="svg144" />
  <g
     id="paper"
     transform="matrix(0,0.283393,-0.283393,0,427.95892,-25.75063)"
     class="item"
     style="display:inline">
    <path
       inkscape:connector-curvature="0"
       id="path35"
       d="m 729.01458,1184.8749 c 0,172.6 -140.3,312.9 -312.9,312.9 -172.6,0 -312.9,-140.4 -312.9,-312.9 0,-172.5 140.4,-312.80001 312.9,-312.80001 172.6,0 312.9,140.30001 312.9,312.80001 z"
       style="display:inline;fill:#eeeeee;stroke:#cccccc;stroke-width:24.70067978;stroke-miterlimit:4;stroke-dasharray:none;stroke-opacity:1"
       class="itemBackground" />
    <g
       id="g51"
       transform="translate(911.51458,1401.2749)">
      <defs
         id="defs41">
        <path
           id="use3422_1_"
           d="m -495.3,-516.9 c 166,0 300.5,134.6 300.5,300.5 0,165.9 -134.6,300.6 -300.5,300.6 -165.9,0 -300.6,-134.6 -300.6,-300.6 0,-166 134.6,-300.5 300.6,-300.5 z"
           inkscape:connector-curvature="0" />
      </defs>
      <clipPath
         id="use3422_2_">
        <use
           xlink:href="#use3422_1_"
           style="overflow:visible"
           id="use43"
           x="0"
           y="0"
           width="100%"
           height="100%" />
      </clipPath>
      <path
         id="path3240"
         style="fill:#ffffff;stroke:#888888;stroke-width:3.52870011;stroke-linecap:round;stroke-linejoin:round"
         d="m -322.4,139.7 c -0.2,0.7 -38.7,-83.8 -59,-120.8 -2,-3.7 -20.1,-1.3 -27.8,-4.8 -9.4,-4.1 -94.8,-32.7 -102.5,-35.3 -2.1,-0.7 -20.7,-19.3 -41.2,-35.1 -20.6,-15.9 -38.9,-25.9 -42.3,-34.1 -3.4,-8.1 -3.5,-16 -7.3,-29.7 -3.2,-11.8 -8.5,-21.1 -10.4,-25.2 -3.3,-7.4 -6.9,-17.9 -4.1,-25.1 2.6,-6.7 8.3,-4.1 14.9,-5.4 -7.5,-7.1 -14.7,-17.8 -22.3,-26.6 -7.5,-8.7 -15.4,-15.5 -21.9,-23 -6,-7 -12.5,-17.1 -19.5,-25.3 -6.3,-7.4 -13,-12.8 -17.8,-19.5 -8.7,-12.4 -23.6,-32.8 -27.1,-47.5 -2.6,-11 1.1,-20.2 14.3,-25.8 4.2,-1.8 12.6,1.8 17,4.1 -13.4,-19.8 -20.6,-21.8 -23.8,-31.9 -6.1,-19.2 3.8,-28.3 19,-29.9 12.1,-1.3 24.4,11.3 34.6,21.7 -12.2,-17.2 6.2,-30.3 20.4,-31.2 6.4,-0.4 11.5,4.2 17.8,8.7 8.2,5.8 17.8,11.4 25,15.8 15.5,9.5 8.3,6.4 54.3,40.7 -25.8,-30.8 -36,-29.8 -36.7,-42.8 -0.5,-9.2 6.1,-11.6 14.9,-14.3 11.4,-3.4 30.7,9.2 40.7,15.6 18.4,11.8 40.2,31.5 57,45.5 13.4,11.2 30.3,27.3 44.1,38 13.5,10.5 35.1,20.1 46.8,32.6 43.1,45.8 105.3,116.4 118.1,152 19.6,54.5 92.3,185.4 94.3,184.6 3.3,-1.3 -170.2,74 -169.5,74 z"
         clip-path="url(#use3422_2_)"
         inkscape:connector-curvature="0" />
      <path
         id="path3242"
         style="fill:#ffffff;fill-opacity:0.1667;stroke:#888888;stroke-width:3.52870011;stroke-linecap:round;stroke-linejoin:round"
         d="m -680.8,-340.8 67.9,75.3 c 22.1,22.2 49.5,45.3 61.7,65.9"
         clip-path="url(#use3422_2_)"
         inkscape:connector-curvature="0" />
      <path
         id="path3244"
         style="fill:#ffffff;fill-opacity:0.1667;stroke:#888888;stroke-width:3.52870011;stroke-linecap:round;stroke-linejoin:round"
         d="m -649.6,-380.2 c 26.3,23.4 50.7,43.1 80.3,73 24.3,18.3 39.5,48.6 58.1,57.3"
         clip-path="url(#use3422_2_)"
         inkscape:connector-curvature="0" />
      <path
         id="path3246"
         style="fill:#ffffff;fill-opacity:0.1667;stroke:#888888;stroke-width:3.52870011;stroke-linecap:round;stroke-linejoin:round"
         d="m -534.2,-347.6 c 44,33.4 36.3,46.2 91.6,77.4"
         clip-path="url(#use3422_2_)"
         inkscape:connector-curvature="0" />
      <path
         id="path3248"
         style="fill:#ffffff;fill-opacity:0.1667;stroke:#888888;stroke-width:3.52870011;stroke-linecap:round;stroke-linejoin:round"
         d="m -497.5,-32.7 c -43.4,-47 -62.2,-95 -105.2,-143.2 v 0"
         clip-path="url(#use3422_2_)"
         inkscape:connector-curvature="0" />
    </g>
  </g>
</svg>
