<?xml version="1.0" encoding="UTF-8" standalone="no"?>
<svg
   xmlns:dc="http://purl.org/dc/elements/1.1/"
   xmlns:cc="http://creativecommons.org/ns#"
   xmlns:rdf="http://www.w3.org/1999/02/22-rdf-syntax-ns#"
   xmlns:svg="http://www.w3.org/2000/svg"
   xmlns="http://www.w3.org/2000/svg"
   xmlns:xlink="http://www.w3.org/1999/xlink"
   xmlns:sodipodi="http://sodipodi.sourceforge.net/DTD/sodipodi-0.dtd"
   xmlns:inkscape="http://www.inkscape.org/namespaces/inkscape"
   x="0px"
   y="0px"
   viewBox="0 0 184.347 184.347"
   version="1.1"
   id="svg144"
   sodipodi:docname="question.svg"
   width="184.347"
   height="184.347"
   inkscape:version="0.92.1 r15371">
  <metadata
     id="metadata191">
    <rdf:RDF>
      <cc:Work
         rdf:about="">
        <dc:format>image/svg+xml</dc:format>
        <dc:type
           rdf:resource="http://purl.org/dc/dcmitype/StillImage" />
        <dc:title />
      </cc:Work>
    </rdf:RDF>
  </metadata>
  <defs
     id="defs189">
    <clipPath
       id="use3424_2_-2">
      <use
         xlink:href="#use3424_1_-0"
         style="overflow:visible"
         id="use75-1"
         x="0"
         y="0"
         width="100%"
         height="100%" />
    </clipPath>
    <path
       id="use3424_1_-0"
       d="m 325.9,638.3 c 166,0 300.5,134.6 300.5,300.5 0,165.9 -134.6,300.5 -300.5,300.5 -165.9,0 -300.5,-134.5 -300.5,-300.5 0,-166 134.5,-300.5 300.5,-300.5 z"
       inkscape:connector-curvature="0" />
  </defs>
  <sodipodi:namedview
     pagecolor="#ffffff"
     bordercolor="#666666"
     borderopacity="1"
     objecttolerance="10"
     gridtolerance="10"
     guidetolerance="10"
     inkscape:pageopacity="0"
     inkscape:pageshadow="2"
     inkscape:window-width="1920"
     inkscape:window-height="1027"
     id="namedview187"
     showgrid="false"
     inkscape:zoom="3.1466666"
     inkscape:cx="99.644634"
     inkscape:cy="134.6357"
     inkscape:window-x="-8"
     inkscape:window-y="-8"
     inkscape:window-maximized="1"
     inkscape:current-layer="scissors" />
  <g
     id="scissors"
     transform="matrix(0,0.283393,-0.283393,0,561.15154,-391.68026)"
     class="item">
    <g
       id="arrows"
       style="display:none"
       class="arrows">
      <g
         id="g12151_1_"
         style="display:inline">
        <path
           id="path3504_1_"
           style="fill:#00bcd4;stroke:#00bcd4;stroke-width:1.41700006"
           d="m 637.5,1345.2 4,-3.1 -125.4,-161.5 -4,3.1 z"
           inkscape:connector-curvature="0" />
        <path
           id="path12157_1_"
           style="fill:#00bcd4;stroke:#00bcd4;stroke-width:1.1336"
           d="m 544.7,1221.6 28.1,3.5 -58.7,-43.1 27.1,67.6 z"
           inkscape:connector-curvature="0" />
      </g>
      <g
         id="g12159_1_"
         style="display:inline">
        <path
           id="path3506_1_"
           style="fill:#00bcd4;stroke:#00bcd4;stroke-width:1.41700006"
           d="M 508.8,696.9 631.5,505.5 627.3,502.9 504.6,694.2 Z"
           inkscape:connector-curvature="0" />
        <path
           id="path12165_1_"
           style="fill:#00bcd4;stroke:#00bcd4;stroke-width:1.1336"
           d="m 602.5,546.2 6,27.6 20.9,-69.7 -54.6,48.1 z"
           inkscape:connector-curvature="0" />
      </g>
      <g
         id="g12183"
         style="display:inline">
        <path
           id="path3512"
           style="fill:#00bcd4;stroke:#00bcd4;stroke-width:1.41700006"
           d="m 1330.2,1240.5 1.4,-4.9 -711.5,-217.2 -1.4,4.7 z"
           inkscape:connector-curvature="0" />
        <path
           id="path12189"
           style="fill:#00bcd4;stroke:#00bcd4;stroke-width:1.1336"
           d="m 1283.1,1223.4 -25,13.3 72.8,1.3 -61.1,-39.6 z"
           inkscape:connector-curvature="0" />
      </g>
      <g
         id="g12215_1_"
         style="display:inline">
        <path
           id="path3520_1_"
           style="fill:#00bcd4;stroke:#00bcd4;stroke-width:1.41700006"
           d="m 613.1,844.4 708.5,-249.2 -1.7,-4.7 -708.4,249.2 z"
           inkscape:connector-curvature="0" />
        <path
           id="path12221_1_"
           style="fill:#00bcd4;stroke:#00bcd4;stroke-width:1.1336"
           d="M 659.5,825.4 671.7,799.9 612.3,842 685,837.6 Z"
           inkscape:connector-curvature="0" />
      </g>
    </g>
    <path
       inkscape:connector-curvature="0"
       id="path67-1"
       d="m 2020.259,1654.8674 c 0,172.5001 -140.3,312.9001 -312.9,312.9001 -172.6,0 -312.9,-140.4 -312.9,-312.9001 0,-172.5 140.3,-312.9 312.9,-312.9 172.6,0 312.9,140.4 312.9,312.9 z"
       style="display:inline;fill:#eeeeee;fill-opacity:1;stroke:#cccccc;stroke-width:24.70067978;stroke-miterlimit:4;stroke-dasharray:none;stroke-opacity:1;paint-order:markers fill stroke"
       class="itemBackground" />
    <g
       aria-label="?"
       transform="matrix(0,-3.9322562,3.9322562,0,929.71786,3169.6068)"
       style="font-style:normal;font-weight:normal;font-size:40px;line-height:1.25;font-family:sans-serif;letter-spacing:0px;word-spacing:0px;fill:#ffffff;fill-opacity:1;stroke:#444444;stroke-opacity:1"
       id="flowRoot4687">
      <path
         d="m 415.98633,172.43961 q 0,6.38021 -2.27865,11.39323 -2.27865,4.94792 -5.98958,8.78906 -3.64584,3.71094 -8.39844,6.96615 -4.7526,3.25521 -10.09115,6.3151 v 14.64844 h -11.65364 v -19.85677 q 4.23177,-2.40885 9.11458,-5.27344 4.94792,-2.86458 8.07292,-5.79427 3.77604,-3.38541 5.85937,-6.96614 2.08334,-3.64584 2.08334,-9.24479 0,-7.35677 -5.01302,-10.9375 -4.94792,-3.64584 -12.82552,-3.64584 -7.03125,0 -13.34636,2.21354 -6.25,2.21355 -9.89583,4.49219 h -0.65104 v -13.28125 q 4.55729,-1.75781 11.52343,-3.125 7.03125,-1.43229 13.28125,-1.43229 13.9974,0 22.07032,6.83594 8.13802,6.77083 8.13802,17.90364 z m -25.71615,74.15365 h -13.28125 v -13.73698 h 13.28125 z"
         style="font-size:133.33332825px;fill:#ffffff;fill-opacity:1;stroke:#444444;stroke-opacity:1"
         id="path4503"
         inkscape:connector-curvature="0" />
    </g>
  </g>
</svg>
