<?xml version="1.0" encoding="UTF-8" standalone="no"?>
<svg
   xmlns:dc="http://purl.org/dc/elements/1.1/"
   xmlns:cc="http://creativecommons.org/ns#"
   xmlns:rdf="http://www.w3.org/1999/02/22-rdf-syntax-ns#"
   xmlns:svg="http://www.w3.org/2000/svg"
   xmlns="http://www.w3.org/2000/svg"
   xmlns:xlink="http://www.w3.org/1999/xlink"
   xmlns:sodipodi="http://sodipodi.sourceforge.net/DTD/sodipodi-0.dtd"
   xmlns:inkscape="http://www.inkscape.org/namespaces/inkscape"
   x="0px"
   y="0px"
   viewBox="0 0 184.347 184.347"
   version="1.1"
   id="svg144"
   sodipodi:docname="rock.svg"
   width="184.347"
   height="184.347"
   inkscape:version="0.92.1 r15371">
  <metadata
     id="metadata191">
    <rdf:RDF>
      <cc:Work
         rdf:about="">
        <dc:format>image/svg+xml</dc:format>
        <dc:type
           rdf:resource="http://purl.org/dc/dcmitype/StillImage" />
        <dc:title></dc:title>
      </cc:Work>
    </rdf:RDF>
  </metadata>
  <defs
     id="defs189">
    <clipPath
       id="use3420_2_-4">
      <use
         xlink:href="#use3420_1_-0"
         style="overflow:visible"
         id="use10-9"
         x="0"
         y="0"
         width="100%"
         height="100%" />
    </clipPath>
    <clipPath
       id="clipPath4633">
      <use
         xlink:href="#use3420_1_-0"
         style="overflow:visible"
         id="use4631"
         x="0"
         y="0"
         width="100%"
         height="100%" />
    </clipPath>
    <clipPath
       id="clipPath4637">
      <use
         xlink:href="#use3420_1_-0"
         style="overflow:visible"
         id="use4635"
         x="0"
         y="0"
         width="100%"
         height="100%" />
    </clipPath>
    <clipPath
       id="clipPath4641">
      <use
         xlink:href="#use3420_1_-0"
         style="overflow:visible"
         id="use4639"
         x="0"
         y="0"
         width="100%"
         height="100%" />
    </clipPath>
    <clipPath
       id="clipPath4645">
      <use
         xlink:href="#use3420_1_-0"
         style="overflow:visible"
         id="use4643"
         x="0"
         y="0"
         width="100%"
         height="100%" />
    </clipPath>
    <clipPath
       id="clipPath4649">
      <use
         xlink:href="#use3420_1_-0"
         style="overflow:visible"
         id="use4647"
         x="0"
         y="0"
         width="100%"
         height="100%" />
    </clipPath>
    <path
       id="use3420_1_-0"
       d="m -64.9,-984.4 c 166,0 300.5,134.6 300.5,300.5 0,165.9 -134.5,300.6 -300.5,300.6 -166,0 -300.5,-134.6 -300.5,-300.5 0,-165.9 134.5,-300.6 300.5,-300.6 z"
       inkscape:connector-curvature="0" />
    <clipPath
       id="use3420_2_-3">
      <use
         xlink:href="#use3420_1_-1"
         style="overflow:visible"
         id="use10-8"
         x="0"
         y="0"
         width="100%"
         height="100%" />
    </clipPath>
    <clipPath
       id="clipPath4633-0">
      <use
         xlink:href="#use3420_1_-1"
         style="overflow:visible"
         id="use4631-5"
         x="0"
         y="0"
         width="100%"
         height="100%" />
    </clipPath>
    <clipPath
       id="clipPath4637-4">
      <use
         xlink:href="#use3420_1_-1"
         style="overflow:visible"
         id="use4635-5"
         x="0"
         y="0"
         width="100%"
         height="100%" />
    </clipPath>
    <clipPath
       id="clipPath4641-1">
      <use
         xlink:href="#use3420_1_-1"
         style="overflow:visible"
         id="use4639-9"
         x="0"
         y="0"
         width="100%"
         height="100%" />
    </clipPath>
    <clipPath
       id="clipPath4645-1">
      <use
         xlink:href="#use3420_1_-1"
         style="overflow:visible"
         id="use4643-3"
         x="0"
         y="0"
         width="100%"
         height="100%" />
    </clipPath>
    <clipPath
       id="clipPath4649-1">
      <use
         xlink:href="#use3420_1_-1"
         style="overflow:visible"
         id="use4647-4"
         x="0"
         y="0"
         width="100%"
         height="100%" />
    </clipPath>
    <path
       id="use3420_1_-1"
       d="m -64.9,-984.4 c 166,0 300.5,134.6 300.5,300.5 0,165.9 -134.5,300.6 -300.5,300.6 -166,0 -300.5,-134.6 -300.5,-300.5 0,-165.9 134.5,-300.6 300.5,-300.6 z"
       inkscape:connector-curvature="0" />
    <clipPath
       id="use3420_2_-49">
      <use
         xlink:href="#use3420_1_-5"
         style="overflow:visible"
         id="use10-6"
         x="0"
         y="0"
         width="100%"
         height="100%" />
    </clipPath>
    <clipPath
       id="clipPath4633-1">
      <use
         xlink:href="#use3420_1_-5"
         style="overflow:visible"
         id="use4631-6"
         x="0"
         y="0"
         width="100%"
         height="100%" />
    </clipPath>
    <clipPath
       id="clipPath4637-1">
      <use
         xlink:href="#use3420_1_-5"
         style="overflow:visible"
         id="use4635-0"
         x="0"
         y="0"
         width="100%"
         height="100%" />
    </clipPath>
    <clipPath
       id="clipPath4641-6">
      <use
         xlink:href="#use3420_1_-5"
         style="overflow:visible"
         id="use4639-0"
         x="0"
         y="0"
         width="100%"
         height="100%" />
    </clipPath>
    <clipPath
       id="clipPath4645-13">
      <use
         xlink:href="#use3420_1_-5"
         style="overflow:visible"
         id="use4643-6"
         x="0"
         y="0"
         width="100%"
         height="100%" />
    </clipPath>
    <clipPath
       id="clipPath4649-6">
      <use
         xlink:href="#use3420_1_-5"
         style="overflow:visible"
         id="use4647-5"
         x="0"
         y="0"
         width="100%"
         height="100%" />
    </clipPath>
    <path
       id="use3420_1_-5"
       d="m -64.9,-984.4 c 166,0 300.5,134.6 300.5,300.5 0,165.9 -134.5,300.6 -300.5,300.6 -166,0 -300.5,-134.6 -300.5,-300.5 0,-165.9 134.5,-300.6 300.5,-300.6 z"
       inkscape:connector-curvature="0" />
  </defs>
  <sodipodi:namedview
     pagecolor="#ffffff"
     bordercolor="#666666"
     borderopacity="1"
     objecttolerance="10"
     gridtolerance="10"
     guidetolerance="10"
     inkscape:pageopacity="0"
     inkscape:pageshadow="2"
     inkscape:window-width="1920"
     inkscape:window-height="1027"
     id="namedview187"
     showgrid="false"
     inkscape:zoom="0.78666665"
     inkscape:cx="177.12794"
     inkscape:cy="252.33507"
     inkscape:window-x="-8"
     inkscape:window-y="-8"
     inkscape:window-maximized="1"
     inkscape:current-layer="rock" />
  <g
     id="rock"
     transform="matrix(0,0.283393,-0.283393,0,-101.61046,110.56554)"
     class="item">
    <path
       inkscape:connector-curvature="0"
       id="path2"
       d="m 248,-683.9 c 0,172.6 -140.3,313 -312.9,313 -172.5,0 -312.8,-140.3 -312.8,-312.9 0,-172.6 140.3,-312.9 312.8,-312.9 172.5,0 312.9,140.3 312.9,312.8 z"
       style="display:inline;fill:#eeeeee;stroke:#cccccc;stroke-width:24.70067978;stroke-miterlimit:4;stroke-dasharray:none;stroke-opacity:1"
       class="itemBackground" />
    <g
       id="g19">
      <defs
         id="defs8">
        <path
           id="use3420_1_"
           d="m -64.9,-984.4 c 166,0 300.5,134.6 300.5,300.5 0,165.9 -134.5,300.6 -300.5,300.6 -166,0 -300.5,-134.6 -300.5,-300.5 0,-165.9 134.5,-300.6 300.5,-300.6 z"
           inkscape:connector-curvature="0" />
      </defs>
      <clipPath
         id="use3420_2_">
        <use
           xlink:href="#use3420_1_"
           style="overflow:visible"
           id="use10"
           x="0"
           y="0"
           width="100%"
           height="100%" />
      </clipPath>
      <path
         id="path2432"
         style="fill:#ffffff;stroke:#888888;stroke-width:3.52870011;stroke-linecap:round;stroke-linejoin:round"
         d="m 36,-369 c 0,0 -34.9,-81.5 -44.4,-106.8 -4.5,-11.9 -5.9,-29.6 -12.2,-40.7 -7.3,-12.9 -20.4,-29.2 -33.3,-36.7 -5.6,-3.3 -55.3,-13.7 -78.1,-19.7 -4.2,-1.1 -29.3,-11.5 -42.1,-19.7 -16.7,-10.6 -37.8,-32.3 -53.6,-44.1 -5.2,-3.9 -13.7,-6.9 -18.3,-11.5 -9.2,-9.2 -18.7,-24.4 -23.1,-36.7 -2.2,-6 -3.1,-12.4 -0.7,-18.3 0.9,-2.1 4.4,-5.2 4.1,-7.5 -2.3,-16.1 -4.8,-48.1 4.1,-65.8 4.1,-8.1 14.8,-15.9 23.1,-19.7 7.3,-3.3 16.5,1.4 21.7,2.5 3.5,-7.2 38.2,-33.8 51.6,-38.4 5.2,-1.8 8.6,0.2 13.9,-1.4 5.4,-4.3 16.6,-11.1 24.2,-14.3 8.9,-3.7 21.8,-5.7 31.2,-7.5 12.9,-2.4 30.7,-9.3 43.4,-6.1 10,2.5 15.5,15.3 25.1,19 1.7,0.7 7.5,2.1 8.8,3.4 20,19.3 35.7,49.1 65.2,80.1 14.3,15.1 30.7,29.7 41.4,47.5 5,8.3 12.3,24.5 16.3,33.3 7.1,15.7 19.8,30 27.1,47.5 4.5,10.7 15,40.1 22.4,55.7 14.1,29.4 42.1,69.7 50.2,88.9 0.1,0 -168,117 -168,117 z"
         clip-path="url(#use3420_2_)"
         inkscape:connector-curvature="0" />
      <path
         id="path3224"
         style="fill:#ffffff;stroke:#888888;stroke-width:3.52870011;stroke-linecap:round;stroke-linejoin:round"
         d="m -216.2,-794.6 c -2.4,4.5 -4.8,12 -7.3,18.6"
         clip-path="url(#use3420_2_)"
         inkscape:connector-curvature="0" />
      <path
         id="path3226"
         style="fill:#ffffff;stroke:#888888;stroke-width:3.52870011;stroke-linecap:round;stroke-linejoin:round"
         d="m -232.6,-725.6 c 1.8,-4.8 -5.4,-26 -1.3,-38.2 4,-12.2 22.1,-16.9 26.7,-24"
         clip-path="url(#use3420_2_)"
         inkscape:connector-curvature="0" />
      <path
         id="path3228"
         style="fill:#ffffff;stroke:#888888;stroke-width:3.52870011;stroke-linecap:round;stroke-linejoin:round"
         d="m -188.7,-776.8 c 4.9,-7 3.2,-24.2 8.6,-32.1 5.4,-7.8 20.3,-10.4 28.8,-17.2 v 0"
         clip-path="url(#use3420_2_)"
         inkscape:connector-curvature="0" />
      <path
         id="path3230"
         style="fill:#ffffff;stroke:#888888;stroke-width:3.52870011;stroke-linecap:round;stroke-linejoin:round"
         d="m -150.2,-834.4 c -7.4,6 -10.2,10.2 -14.3,14.8"
         clip-path="url(#use3420_2_)"
         inkscape:connector-curvature="0" />
      <path
         id="path3232"
         style="fill:#ffffff;stroke:#888888;stroke-width:3.52870011;stroke-linecap:round;stroke-linejoin:round"
         d="m -120,-844.9 c 2.1,1 12.1,-7.2 17.5,-8.9 5.4,-1.7 15.8,0.6 18.6,0 v 0"
         clip-path="url(#use3420_2_)"
         inkscape:connector-curvature="0" />
    </g>
  </g>
</svg>
