<?xml version="1.0" encoding="UTF-8" standalone="no"?>
<svg
   xmlns:dc="http://purl.org/dc/elements/1.1/"
   xmlns:cc="http://creativecommons.org/ns#"
   xmlns:rdf="http://www.w3.org/1999/02/22-rdf-syntax-ns#"
   xmlns:svg="http://www.w3.org/2000/svg"
   xmlns="http://www.w3.org/2000/svg"
   xmlns:xlink="http://www.w3.org/1999/xlink"
   xmlns:sodipodi="http://sodipodi.sourceforge.net/DTD/sodipodi-0.dtd"
   xmlns:inkscape="http://www.inkscape.org/namespaces/inkscape"
   x="0px"
   y="0px"
   viewBox="0 0 184.347 184.347"
   version="1.1"
   id="svg144"
   sodipodi:docname="scissors.svg"
   width="184.347"
   height="184.347"
   inkscape:version="0.92.1 r15371">
  <metadata
     id="metadata191">
    <rdf:RDF>
      <cc:Work
         rdf:about="">
        <dc:format>image/svg+xml</dc:format>
        <dc:type
           rdf:resource="http://purl.org/dc/dcmitype/StillImage" />
        <dc:title></dc:title>
      </cc:Work>
    </rdf:RDF>
  </metadata>
  <defs
     id="defs189">
    <clipPath
       id="use3420_2_-4">
      <use
         xlink:href="#use3420_1_-0"
         style="overflow:visible"
         id="use10-9"
         x="0"
         y="0"
         width="100%"
         height="100%" />
    </clipPath>
    <clipPath
       id="clipPath4633">
      <use
         xlink:href="#use3420_1_-0"
         style="overflow:visible"
         id="use4631"
         x="0"
         y="0"
         width="100%"
         height="100%" />
    </clipPath>
    <clipPath
       id="clipPath4637">
      <use
         xlink:href="#use3420_1_-0"
         style="overflow:visible"
         id="use4635"
         x="0"
         y="0"
         width="100%"
         height="100%" />
    </clipPath>
    <clipPath
       id="clipPath4641">
      <use
         xlink:href="#use3420_1_-0"
         style="overflow:visible"
         id="use4639"
         x="0"
         y="0"
         width="100%"
         height="100%" />
    </clipPath>
    <clipPath
       id="clipPath4645">
      <use
         xlink:href="#use3420_1_-0"
         style="overflow:visible"
         id="use4643"
         x="0"
         y="0"
         width="100%"
         height="100%" />
    </clipPath>
    <clipPath
       id="clipPath4649">
      <use
         xlink:href="#use3420_1_-0"
         style="overflow:visible"
         id="use4647"
         x="0"
         y="0"
         width="100%"
         height="100%" />
    </clipPath>
    <path
       id="use3420_1_-0"
       d="m -64.9,-984.4 c 166,0 300.5,134.6 300.5,300.5 0,165.9 -134.5,300.6 -300.5,300.6 -166,0 -300.5,-134.6 -300.5,-300.5 0,-165.9 134.5,-300.6 300.5,-300.6 z"
       inkscape:connector-curvature="0" />
    <clipPath
       id="use3420_2_-3">
      <use
         xlink:href="#use3420_1_-1"
         style="overflow:visible"
         id="use10-8"
         x="0"
         y="0"
         width="100%"
         height="100%" />
    </clipPath>
    <clipPath
       id="clipPath4633-0">
      <use
         xlink:href="#use3420_1_-1"
         style="overflow:visible"
         id="use4631-5"
         x="0"
         y="0"
         width="100%"
         height="100%" />
    </clipPath>
    <clipPath
       id="clipPath4637-4">
      <use
         xlink:href="#use3420_1_-1"
         style="overflow:visible"
         id="use4635-5"
         x="0"
         y="0"
         width="100%"
         height="100%" />
    </clipPath>
    <clipPath
       id="clipPath4641-1">
      <use
         xlink:href="#use3420_1_-1"
         style="overflow:visible"
         id="use4639-9"
         x="0"
         y="0"
         width="100%"
         height="100%" />
    </clipPath>
    <clipPath
       id="clipPath4645-1">
      <use
         xlink:href="#use3420_1_-1"
         style="overflow:visible"
         id="use4643-3"
         x="0"
         y="0"
         width="100%"
         height="100%" />
    </clipPath>
    <clipPath
       id="clipPath4649-1">
      <use
         xlink:href="#use3420_1_-1"
         style="overflow:visible"
         id="use4647-4"
         x="0"
         y="0"
         width="100%"
         height="100%" />
    </clipPath>
    <path
       id="use3420_1_-1"
       d="m -64.9,-984.4 c 166,0 300.5,134.6 300.5,300.5 0,165.9 -134.5,300.6 -300.5,300.6 -166,0 -300.5,-134.6 -300.5,-300.5 0,-165.9 134.5,-300.6 300.5,-300.6 z"
       inkscape:connector-curvature="0" />
    <clipPath
       id="use3420_2_-49">
      <use
         xlink:href="#use3420_1_-5"
         style="overflow:visible"
         id="use10-6"
         x="0"
         y="0"
         width="100%"
         height="100%" />
    </clipPath>
    <clipPath
       id="clipPath4633-1">
      <use
         xlink:href="#use3420_1_-5"
         style="overflow:visible"
         id="use4631-6"
         x="0"
         y="0"
         width="100%"
         height="100%" />
    </clipPath>
    <clipPath
       id="clipPath4637-1">
      <use
         xlink:href="#use3420_1_-5"
         style="overflow:visible"
         id="use4635-0"
         x="0"
         y="0"
         width="100%"
         height="100%" />
    </clipPath>
    <clipPath
       id="clipPath4641-6">
      <use
         xlink:href="#use3420_1_-5"
         style="overflow:visible"
         id="use4639-0"
         x="0"
         y="0"
         width="100%"
         height="100%" />
    </clipPath>
    <clipPath
       id="clipPath4645-13">
      <use
         xlink:href="#use3420_1_-5"
         style="overflow:visible"
         id="use4643-6"
         x="0"
         y="0"
         width="100%"
         height="100%" />
    </clipPath>
    <clipPath
       id="clipPath4649-6">
      <use
         xlink:href="#use3420_1_-5"
         style="overflow:visible"
         id="use4647-5"
         x="0"
         y="0"
         width="100%"
         height="100%" />
    </clipPath>
    <path
       id="use3420_1_-5"
       d="m -64.9,-984.4 c 166,0 300.5,134.6 300.5,300.5 0,165.9 -134.5,300.6 -300.5,300.6 -166,0 -300.5,-134.6 -300.5,-300.5 0,-165.9 134.5,-300.6 300.5,-300.6 z"
       inkscape:connector-curvature="0" />
  </defs>
  <sodipodi:namedview
     pagecolor="#ffffff"
     bordercolor="#666666"
     borderopacity="1"
     objecttolerance="10"
     gridtolerance="10"
     guidetolerance="10"
     inkscape:pageopacity="0"
     inkscape:pageshadow="2"
     inkscape:window-width="1920"
     inkscape:window-height="1027"
     id="namedview187"
     showgrid="false"
     inkscape:zoom="0.78666665"
     inkscape:cx="177.12794"
     inkscape:cy="252.33507"
     inkscape:window-x="-8"
     inkscape:window-y="-8"
     inkscape:window-maximized="1"
     inkscape:current-layer="scissors" />
  <g
     id="scissors"
     transform="matrix(0,0.283393,-0.283393,0,561.15154,-391.68026)"
     class="item"
     style="display:inline">
    <path
       inkscape:connector-curvature="0"
       id="path67"
       d="m 2020.259,1654.8675 c 0,172.5 -140.3,312.9 -312.9,312.9 -172.6,0 -312.9,-140.4 -312.9,-312.9 0,-172.5 140.3,-312.9 312.9,-312.9 172.6,0 312.9,140.4 312.9,312.9 z"
       style="display:inline;fill:#eeeeee;fill-opacity:1;stroke:#cccccc;stroke-width:24.70067978;stroke-miterlimit:4;stroke-dasharray:none;stroke-opacity:1;paint-order:markers fill stroke"
       class="itemBackground" />
    <g
       id="g83"
       style="display:inline"
       transform="translate(1381.459,716.06752)">
      <defs
         id="defs73">
        <path
           id="use3424_1_"
           d="m 325.9,638.3 c 166,0 300.5,134.6 300.5,300.5 0,165.9 -134.6,300.5 -300.5,300.5 -165.9,0 -300.5,-134.5 -300.5,-300.5 0,-166 134.5,-300.5 300.5,-300.5 z"
           inkscape:connector-curvature="0" />
      </defs>
      <clipPath
         id="use3424_2_">
        <use
           xlink:href="#use3424_1_"
           style="overflow:visible"
           id="use75"
           x="0"
           y="0"
           width="100%"
           height="100%" />
      </clipPath>
      <g
         clip-path="url(#use3424_2_)"
         id="g81"
         style="display:inline">
        <path
           id="path3275"
           style="fill:#ffffff;fill-opacity:1;stroke:#444444;stroke-width:3.52866864;stroke-linecap:round;stroke-linejoin:round;stroke-miterlimit:4;stroke-dasharray:none"
           d="m 496.8,1290.1 c -1.2,-0.5 -50.1,-108.6 -65.2,-134.4 -2.6,-4.4 -99.1,-70.2 -143.9,-114 -6.3,-6.2 -17,-8.3 -26.5,-14.6 -7.7,-5.1 -14.1,-14.5 -20.3,-18 -22.1,-12.4 -53.9,-24.4 -76,-36.7 -14.3,-7.9 -32.5,-20.1 -46.2,-29.2 C 106.9,935.3 85,921.6 74.6,912 63.3,901.5 61.2,880.2 83.4,876.7 c 12.9,-2 38.9,15.3 55,22.4 14.4,6.4 33.5,15.4 48.2,21 9.8,3.8 21.5,6.5 33.3,10.8 10.7,3.9 21.6,9.4 31.2,8.9 6,-0.3 13.9,-2.1 17.6,-6.8 4.4,-5.6 -30.2,-41.6 -41.4,-67.2 -5.5,-12.5 -14.6,-24.7 -25.1,-48.2 -4.2,-9.4 -12.4,-20.6 -17,-29.9 -4.4,-9 -12.8,-31.5 -14.3,-41.4 -1.9,-13.1 14.7,-26.5 29.2,-21 5.2,2 22.2,31.9 31.9,45.5 13.1,18.4 28.6,44.7 44.1,61.1 19.6,20.8 33.9,65 44.8,70.6 1.7,0.9 4.6,-1.7 5.4,-3.4 1.5,-3.1 -2.1,-8.1 -1.4,-11.5 2,-8.7 9.4,-19.4 16.3,-25.1 20,-16.6 36.6,4.4 46.8,8.1 3.6,1.3 9.9,-9.7 21.7,-10.9 11,-1 22.8,3.8 29.2,11.5 7.8,9.4 11,27.5 20.4,35.3 2.3,1.9 7.6,1.1 9.5,3.4 22.5,27.4 42.8,49.3 58.4,70.6 15.3,21 39,60 37.3,71.3 -1,6.4 24.6,44.4 42.1,83.5 10.6,23.8 45.5,74 45.5,74 z"
           inkscape:connector-curvature="0" />
        <path
           id="path3277"
           style="fill:#ffffff;fill-opacity:0.16862745;stroke:#444444;stroke-width:3.52870011;stroke-linecap:round;stroke-linejoin:round"
           d="m 390.9,870 c -9.8,6.8 -13.7,20.3 -19,21"
           inkscape:connector-curvature="0" />
        <path
           id="path3279"
           style="fill:#ffffff;fill-opacity:0.16862745;stroke:#444444;stroke-width:3.52870011;stroke-linecap:round;stroke-linejoin:round"
           d="m 451.3,898.5 -8.1,-9.5 -3.4,-12.2"
           inkscape:connector-curvature="0" />
      </g>
    </g>
  </g>
</svg>
