<?xml version="1.0" encoding="UTF-8" standalone="no"?>
<svg
   xmlns:dc="http://purl.org/dc/elements/1.1/"
   xmlns:cc="http://creativecommons.org/ns#"
   xmlns:rdf="http://www.w3.org/1999/02/22-rdf-syntax-ns#"
   xmlns:svg="http://www.w3.org/2000/svg"
   xmlns="http://www.w3.org/2000/svg"
   xmlns:xlink="http://www.w3.org/1999/xlink"
   xmlns:sodipodi="http://sodipodi.sourceforge.net/DTD/sodipodi-0.dtd"
   xmlns:inkscape="http://www.inkscape.org/namespaces/inkscape"
   x="0px"
   y="0px"
   viewBox="0 0 184.347 184.347"
   version="1.1"
   id="svg144"
   sodipodi:docname="spock.svg"
   width="184.347"
   height="184.347"
   inkscape:version="0.92.1 r15371">
  <metadata
     id="metadata191">
    <rdf:RDF>
      <cc:Work
         rdf:about="">
        <dc:format>image/svg+xml</dc:format>
        <dc:type
           rdf:resource="http://purl.org/dc/dcmitype/StillImage" />
        <dc:title></dc:title>
      </cc:Work>
    </rdf:RDF>
  </metadata>
  <defs
     id="defs189">
    <clipPath
       id="use3420_2_-4">
      <use
         xlink:href="#use3420_1_-0"
         style="overflow:visible"
         id="use10-9"
         x="0"
         y="0"
         width="100%"
         height="100%" />
    </clipPath>
    <clipPath
       id="clipPath4633">
      <use
         xlink:href="#use3420_1_-0"
         style="overflow:visible"
         id="use4631"
         x="0"
         y="0"
         width="100%"
         height="100%" />
    </clipPath>
    <clipPath
       id="clipPath4637">
      <use
         xlink:href="#use3420_1_-0"
         style="overflow:visible"
         id="use4635"
         x="0"
         y="0"
         width="100%"
         height="100%" />
    </clipPath>
    <clipPath
       id="clipPath4641">
      <use
         xlink:href="#use3420_1_-0"
         style="overflow:visible"
         id="use4639"
         x="0"
         y="0"
         width="100%"
         height="100%" />
    </clipPath>
    <clipPath
       id="clipPath4645">
      <use
         xlink:href="#use3420_1_-0"
         style="overflow:visible"
         id="use4643"
         x="0"
         y="0"
         width="100%"
         height="100%" />
    </clipPath>
    <clipPath
       id="clipPath4649">
      <use
         xlink:href="#use3420_1_-0"
         style="overflow:visible"
         id="use4647"
         x="0"
         y="0"
         width="100%"
         height="100%" />
    </clipPath>
    <path
       id="use3420_1_-0"
       d="m -64.9,-984.4 c 166,0 300.5,134.6 300.5,300.5 0,165.9 -134.5,300.6 -300.5,300.6 -166,0 -300.5,-134.6 -300.5,-300.5 0,-165.9 134.5,-300.6 300.5,-300.6 z"
       inkscape:connector-curvature="0" />
    <clipPath
       id="use3420_2_-3">
      <use
         xlink:href="#use3420_1_-1"
         style="overflow:visible"
         id="use10-8"
         x="0"
         y="0"
         width="100%"
         height="100%" />
    </clipPath>
    <clipPath
       id="clipPath4633-0">
      <use
         xlink:href="#use3420_1_-1"
         style="overflow:visible"
         id="use4631-5"
         x="0"
         y="0"
         width="100%"
         height="100%" />
    </clipPath>
    <clipPath
       id="clipPath4637-4">
      <use
         xlink:href="#use3420_1_-1"
         style="overflow:visible"
         id="use4635-5"
         x="0"
         y="0"
         width="100%"
         height="100%" />
    </clipPath>
    <clipPath
       id="clipPath4641-1">
      <use
         xlink:href="#use3420_1_-1"
         style="overflow:visible"
         id="use4639-9"
         x="0"
         y="0"
         width="100%"
         height="100%" />
    </clipPath>
    <clipPath
       id="clipPath4645-1">
      <use
         xlink:href="#use3420_1_-1"
         style="overflow:visible"
         id="use4643-3"
         x="0"
         y="0"
         width="100%"
         height="100%" />
    </clipPath>
    <clipPath
       id="clipPath4649-1">
      <use
         xlink:href="#use3420_1_-1"
         style="overflow:visible"
         id="use4647-4"
         x="0"
         y="0"
         width="100%"
         height="100%" />
    </clipPath>
    <path
       id="use3420_1_-1"
       d="m -64.9,-984.4 c 166,0 300.5,134.6 300.5,300.5 0,165.9 -134.5,300.6 -300.5,300.6 -166,0 -300.5,-134.6 -300.5,-300.5 0,-165.9 134.5,-300.6 300.5,-300.6 z"
       inkscape:connector-curvature="0" />
    <clipPath
       id="use3420_2_-49">
      <use
         xlink:href="#use3420_1_-5"
         style="overflow:visible"
         id="use10-6"
         x="0"
         y="0"
         width="100%"
         height="100%" />
    </clipPath>
    <clipPath
       id="clipPath4633-1">
      <use
         xlink:href="#use3420_1_-5"
         style="overflow:visible"
         id="use4631-6"
         x="0"
         y="0"
         width="100%"
         height="100%" />
    </clipPath>
    <clipPath
       id="clipPath4637-1">
      <use
         xlink:href="#use3420_1_-5"
         style="overflow:visible"
         id="use4635-0"
         x="0"
         y="0"
         width="100%"
         height="100%" />
    </clipPath>
    <clipPath
       id="clipPath4641-6">
      <use
         xlink:href="#use3420_1_-5"
         style="overflow:visible"
         id="use4639-0"
         x="0"
         y="0"
         width="100%"
         height="100%" />
    </clipPath>
    <clipPath
       id="clipPath4645-13">
      <use
         xlink:href="#use3420_1_-5"
         style="overflow:visible"
         id="use4643-6"
         x="0"
         y="0"
         width="100%"
         height="100%" />
    </clipPath>
    <clipPath
       id="clipPath4649-6">
      <use
         xlink:href="#use3420_1_-5"
         style="overflow:visible"
         id="use4647-5"
         x="0"
         y="0"
         width="100%"
         height="100%" />
    </clipPath>
    <path
       id="use3420_1_-5"
       d="m -64.9,-984.4 c 166,0 300.5,134.6 300.5,300.5 0,165.9 -134.5,300.6 -300.5,300.6 -166,0 -300.5,-134.6 -300.5,-300.5 0,-165.9 134.5,-300.6 300.5,-300.6 z"
       inkscape:connector-curvature="0" />
  </defs>
  <sodipodi:namedview
     pagecolor="#ffffff"
     bordercolor="#666666"
     borderopacity="1"
     objecttolerance="10"
     gridtolerance="10"
     guidetolerance="10"
     inkscape:pageopacity="0"
     inkscape:pageshadow="2"
     inkscape:window-width="1920"
     inkscape:window-height="1027"
     id="namedview187"
     showgrid="false"
     inkscape:zoom="0.78666665"
     inkscape:cx="177.12794"
     inkscape:cy="252.33507"
     inkscape:window-x="-8"
     inkscape:window-y="-8"
     inkscape:window-maximized="1"
     inkscape:current-layer="spock" />
  <g
     id="spock"
     transform="matrix(0,0.283393,-0.283393,0,245.69481,-490.52348)"
     class="item"
     style="display:inline">
    <path
       inkscape:connector-curvature="0"
       id="path154"
       d="m 2369.044,541.62524 c 0,172.6 -140.3,313 -312.9,313 -172.6,0 -312.9,-140.4 -312.9,-312.9 0,-172.6 140.3,-313 312.9,-313 172.6,0 312.9,140.4 312.9,312.9 z"
       style="display:inline;fill:#eeeeee;fill-opacity:1;stroke:#cccccc;stroke-width:24.70067978;stroke-miterlimit:4;stroke-dasharray:none;stroke-opacity:1;paint-order:markers fill stroke"
       class="itemBackground" />
    <g
       id="g170"
       style="display:inline"
       transform="translate(894.14398,65.425238)">
      <defs
         id="defs160">
        <path
           id="use3418_1_"
           d="m 1162,175.7 c 166,0 300.5,134.6 300.5,300.5 0,165.9 -134.5,300.6 -300.5,300.6 C 996,776.8 861.5,642.2 861.5,476.3 861.5,310.4 996,175.7 1162,175.7 Z"
           inkscape:connector-curvature="0" />
      </defs>
      <clipPath
         id="use3418_2_">
        <use
           xlink:href="#use3418_1_"
           style="overflow:visible"
           id="use162"
           x="0"
           y="0"
           width="100%"
           height="100%" />
      </clipPath>
      <g
         clip-path="url(#use3418_2_)"
         id="g168">
        <path
           id="path3403"
           style="fill:#ffffff;stroke:#888888;stroke-width:3.52870011;stroke-linecap:round;stroke-linejoin:round"
           d="m 1515.7,532.5 c -11.2,2.2 -138.3,-0.8 -156.2,2.2 -14.5,14.1 -26.3,45.9 -48.3,66.2 -19.4,17.9 -46.3,25.1 -66.9,41.6 -10.7,8.6 -31.4,25.9 -40.2,36.4 -7.4,9 -18.8,32.5 -30.5,32.7 -11.1,0.2 -15.6,-15 -17.1,-26 -2.7,-19.1 17,-56.8 26,-64 2.5,-2 26.7,-29.5 41.6,-40.2 -2.3,-11.1 -42.2,-2.9 -53.5,-3.7 -16,-1.1 -34.2,-1.5 -37.2,-0.7 -3,0.7 -23.8,4.5 -32,5.2 -8.2,0.7 -32,6.7 -35.7,6.7 -3.7,0 -31.2,3.7 -36.4,3.7 -5.2,0 -19.4,0.1 -30.5,1.5 -10.9,1.4 -35.3,3.4 -52.8,1.5 -13.1,-1.5 -25.8,-17.3 -15.6,-31.2 4.2,-5.7 14.7,-8.1 20.8,-11.2 -7.3,1.6 -28.8,5.8 -40.9,3.7 -23.9,-4.1 -22.8,-29.7 -10.4,-36.4 12.6,-6.8 41.8,-11 58.8,-16.4 20.4,-6.4 49,-10.1 71.4,-14.1 16.7,-8.2 42.7,-11.9 58,-20.8 4.3,-2.5 9.3,-7.6 8.9,-12.6 -0.3,-5.2 0,-5.2 -16.4,-13.4 -16.4,-8.2 -14.2,-7.1 -20.8,-11.2 -9.7,-5.9 -20.1,-8.9 -26.8,-13.4 -3.7,-2.5 -21.9,-10.4 -32.7,-14.1 -9.3,-3.2 -18.8,-6.9 -28.3,-9.7 -14,-4 -31,-9 -44.6,-14.1 -18.9,-7.2 -19.4,-27.3 -0.7,-36.4 13.8,-6.8 34.7,2.4 52.8,5.2 -12.9,-9.3 -1.1,-26.7 8.2,-29 11.5,-2.8 27.7,-1 39.4,0.7 6.6,1 15,4.5 21.6,5.9 8.2,1.8 17.2,3.7 25.3,5.9 7.6,2.1 19.2,5.9 26.8,8.2 10.3,3.1 24.5,4.9 35,7.4 6.5,1.6 14.9,5 21.6,5.9 15.7,2.2 37,0.5 52.8,0.7 12.7,0.2 29.7,0.2 42.4,0.7 23.5,1 54.9,1.3 78.1,5.2 11.6,2 26.2,8.9 37.9,10.4 44,5.6 148.7,-7.4 148,-2.2 -0.9,5.5 0.6,164.6 -0.9,163.2 z"
           inkscape:connector-curvature="0" />
        <path
           id="path3407"
           style="fill:#ffffff;stroke:#888888;stroke-width:3.52870011;stroke-linecap:round;stroke-linejoin:round"
           d="m 978.1,349.5 c 87.5,31.1 37.7,18.2 148.7,54.3"
           inkscape:connector-curvature="0" />
        <path
           id="path3405"
           style="fill:#ffffff;stroke:#888888;stroke-width:3.52870011;stroke-linecap:round;stroke-linejoin:round"
           d="m 949.8,553.3 c 33.7,-6.1 81.8,-17.3 160.6,-30.5 v 0"
           inkscape:connector-curvature="0" />
      </g>
    </g>
  </g>
</svg>
