<?xml version="1.0" encoding="UTF-8" standalone="no"?>
<!-- Generator: Adobe Illustrator 19.2.1, SVG Export Plug-In . SVG Version: 6.00 Build 0)  -->

<svg
   xmlns:dc="http://purl.org/dc/elements/1.1/"
   xmlns:cc="http://creativecommons.org/ns#"
   xmlns:rdf="http://www.w3.org/1999/02/22-rdf-syntax-ns#"
   xmlns:svg="http://www.w3.org/2000/svg"
   xmlns="http://www.w3.org/2000/svg"
   xmlns:sodipodi="http://sodipodi.sourceforge.net/DTD/sodipodi-0.dtd"
   xmlns:inkscape="http://www.inkscape.org/namespaces/inkscape"
   version="1.1"
   viewBox="0 0 50.686 17.302"
   xml:space="preserve"
   id="svg38"
   sodipodi:docname="win.svg"
   inkscape:version="0.92.1 r15371"
   width="50.686001"
   height="17.302"><metadata
     id="metadata44"><rdf:RDF><cc:Work
         rdf:about=""><dc:format>image/svg+xml</dc:format><dc:type
           rdf:resource="http://purl.org/dc/dcmitype/StillImage" /><dc:title></dc:title></cc:Work></rdf:RDF></metadata><defs
     id="defs42" /><sodipodi:namedview
     pagecolor="#ffffff"
     bordercolor="#666666"
     borderopacity="1"
     objecttolerance="10"
     gridtolerance="10"
     guidetolerance="10"
     inkscape:pageopacity="0"
     inkscape:pageshadow="2"
     inkscape:window-width="1920"
     inkscape:window-height="1027"
     id="namedview40"
     showgrid="false"
     inkscape:zoom="5.7142856"
     inkscape:cx="63.473169"
     inkscape:cy="0.068522557"
     inkscape:window-x="1912"
     inkscape:window-y="-8"
     inkscape:window-maximized="1"
     inkscape:current-layer="svg38" /><flowRoot
     xml:space="preserve"
     id="flowRoot4521"
     style="font-style:normal;font-variant:normal;font-weight:normal;font-stretch:normal;font-size:24px;line-height:1.25;font-family:Rye;-inkscape-font-specification:Rye;letter-spacing:0px;word-spacing:0px;fill:#000000;fill-opacity:1;stroke:none"
     transform="translate(32.915821,-71.072239)"><flowRegion
       id="flowRegion4523"
       style="font-style:normal;font-variant:normal;font-weight:normal;font-stretch:normal;font-size:24px;font-family:Rye;-inkscape-font-specification:Rye"><rect
         id="rect4525"
         width="173.73615"
         height="98.005005"
         x="-24.501251"
         y="-4.0622973"
         style="font-style:normal;font-variant:normal;font-weight:normal;font-stretch:normal;font-size:24px;font-family:Rye;-inkscape-font-specification:Rye" /></flowRegion><flowPara
       id="flowPara4527" /></flowRoot><text
     xml:space="preserve"
     style="font-style:normal;font-weight:normal;font-size:13.33333302px;line-height:1.25;font-family:sans-serif;letter-spacing:0px;word-spacing:0px;fill:#000000;fill-opacity:1;stroke:none"
     x="36.009415"
     y="-2.4969902"
     id="text4541"><tspan
       sodipodi:role="line"
       id="tspan4539"
       x="36.009415"
       y="9.6674137" /></text>
<path
     style="display:none;fill:none;stroke:#000000;stroke-width:1px;stroke-linecap:butt;stroke-linejoin:miter;stroke-opacity:1"
     d="m 14.875,28.327 c 0,0 10.443022,15.628408 34.125001,15.575 23.681979,-0.05341 37.45,-15.75 37.45,-15.75"
     id="path4555"
     inkscape:connector-curvature="0"
     sodipodi:nodetypes="czc" /><g
     aria-label="   You win"
     transform="translate(-23.614009,-58.373127)"
     style="font-style:normal;font-variant:normal;font-weight:normal;font-stretch:normal;font-size:13.33333302px;line-height:1.25;font-family:Rye;-inkscape-font-specification:Rye;letter-spacing:0px;word-spacing:0px;fill:#000000;fill-opacity:1;stroke:none"
     id="text4561"><path
       d="m 26.251973,69.679035 q -0.391916,0.007 -0.754331,-0.211488 -0.362414,-0.218483 -0.539209,-0.568327 -0.391917,0.007 -0.637244,-0.140901 -0.239751,-0.144535 -0.380129,-0.289978 -0.138163,-0.136506 -0.222706,-0.286298 -0.180236,-0.306307 -0.04915,-0.523755 0.06723,-0.111513 0.178976,-0.158173 0.06552,0.168734 0.266243,0.289739 0.206298,0.124367 0.476459,0.142798 0.275737,0.02179 0.516125,-0.137369 l 0.66217,-1.098394 q 0.154618,-0.256478 0.128205,-0.439644 -0.04733,-0.325009 -0.331129,-0.762167 0.477765,0.05236 0.672162,-0.0053 0.320661,-0.103166 0.485363,-0.37637 l 0.121005,-0.200722 0.09805,-5.231853 q -0.148599,-0.484885 -0.399502,-0.636142 -0.250902,-0.151257 -0.453009,-0.143865 -0.03444,-0.08158 0.03951,-0.204242 0.07395,-0.122663 0.17348,-0.199495 0.102894,-0.08241 0.233586,-0.110047 0.279257,-0.05971 0.619369,0.145329 0.340112,0.205038 0.484521,0.558164 0.396425,-0.02708 0.775566,0.201484 0.384717,0.231927 0.51576,0.569394 0.409791,-0.01142 0.666269,0.143195 0.256478,0.154618 0.389066,0.287763 0.135949,0.127569 0.20934,0.270639 0.163509,0.296223 0.02004,0.559423 -0.09411,0.156117 -0.178976,0.158172 -0.0934,-0.185539 -0.243941,-0.276293 -0.323385,-0.194954 -0.594694,-0.198872 l -0.262263,4.205418 3.516203,-2.251373 Q 32.30859,62.482283 32.007507,62.300774 31.712,62.122627 31.493166,62.119935 q -0.0053,-0.117247 0.102223,-0.295666 0.107561,-0.178419 0.338773,-0.22148 0.234573,-0.04864 0.513353,0.119428 0.278781,0.168063 0.39211,0.434035 0.265812,-0.0374 0.52229,0.117213 0.256478,0.154619 0.355374,0.381481 0.319274,0.02523 0.564601,0.173129 0.245327,0.147896 0.292815,0.396981 0.05643,0.246872 -0.09483,0.497774 -0.07731,0.128239 -0.165531,0.13587 -0.08782,-0.182179 -0.299697,-0.309907 -0.36799,-0.221844 -0.773352,-0.192547 l -4.280822,2.687451 -0.18487,0.306658 q -0.164702,0.273205 -0.128285,0.477606 0.06184,0.326156 0.331208,0.724205 -0.519088,-0.04687 -0.71127,0.01972 -0.291635,0.10546 -0.446254,0.361937 l -0.66217,1.098395 q -0.03409,0.283527 0.108343,0.51383 0.148009,0.233665 0.354307,0.358032 0.206297,0.124367 0.386102,0.10353 0.01091,0.120608 -0.05631,0.23212 -0.06386,0.105937 -0.193488,0.157025 -0.129625,0.05109 -0.292624,0.04405 -0.372895,-0.01195 -0.707432,-0.213623 -0.328961,-0.198315 -0.505756,-0.548159 z m -0.287022,-2.096328 q 0.362732,0.06664 0.851104,-0.680416 0.146749,-0.230815 0.294645,-0.476141 l 0.561332,-0.931126 q 0.161341,-0.26763 0.16518,-0.500976 l 0.104032,-2.757611 q 0.01234,-0.562705 -0.03309,-0.72693 -0.07315,-0.256955 -0.293883,-0.420431 l -0.196184,4.108419 -0.164702,0.273204 q -0.198315,0.328961 -0.316868,0.424734 -0.194635,0.171538 -0.604187,0.06908 0.289534,0.364595 0.218708,0.595568 -0.05509,0.179646 -0.182814,0.391519 -0.124367,0.206298 -0.229634,0.355692 -0.09969,0.152756 -0.173639,0.275419 z"
       id="path4492"
       inkscape:connector-curvature="0" /><path
       d="m 31.426583,71.542787 q -0.252008,-0.527571 -0.29307,-1.147711 -0.03491,-0.618018 0.04949,-1.022761 0.0844,-0.404743 0.08566,-0.528263 0.0074,-0.121399 -0.03867,-0.247458 -0.09003,-0.258274 -0.442608,-0.613919 0.618227,-0.05549 0.948384,-0.533923 0.094,-0.132874 0.16953,-0.272111 0.539751,-1.046612 1.699112,-1.473392 1.161483,-0.432935 2.367887,-0.01716 1.255644,0.43275 1.901645,1.49551 0.627745,1.035809 0.408061,2.192729 -0.07825,0.406865 -0.02897,0.623547 0.09684,0.398347 0.412909,0.700091 -0.488552,0.05887 -0.664687,0.17032 -0.240435,0.158154 -0.385345,0.43875 -0.697596,1.384726 -1.770995,1.861791 -1.071277,0.47091 -2.425404,0.0042 -1.452608,-0.500633 -1.992928,-1.630263 z m 4.77496,-3.085173 q 0.530332,-1.53878 -0.516039,-1.899405 -1.04637,-0.360626 -1.576702,1.178154 l -0.939747,2.726718 q -0.509118,1.477229 0.531098,1.835733 1.052525,0.362747 1.561643,-1.114482 z m -0.541896,3.490481 q 0.348061,-0.01088 0.616425,-0.689648 0.274519,-0.676645 0.389071,-1.009022 0.116673,-0.338531 0.186886,-0.562237 0.07849,-0.227739 0.155065,-0.46991 0.285093,-0.907133 0.219058,-1.095161 -0.06604,-0.188028 -0.153702,-0.273332 z M 31.97273,70.677421 q 0.109506,-0.03801 0.139205,-0.124179 0.04667,-0.135413 0.0634,-0.363779 0.08069,-1.053328 0.210089,-1.42879 0.131522,-0.381618 0.228268,-0.582406 0.09887,-0.206944 0.210044,-0.409646 0.224266,-0.390971 0.420747,-0.681338 0.127521,-0.190182 0.152977,-0.264044 0.05091,-0.147723 -0.01192,-0.245128 -0.364581,0.218661 -0.678185,0.689022 -0.313604,0.470361 -0.535541,0.83459 -0.08805,0.155581 -0.473461,0.194908 0.279343,0.268429 0.257086,0.432914 -0.130765,1.118704 -0.08062,1.452752 0.05014,0.334047 0.09792,0.495124 z"
       id="path4494"
       inkscape:connector-curvature="0" /><path
       d="m 44.351151,75.485094 q -0.909809,-0.122121 -0.811898,-1.389895 -0.408761,0.549463 -1.016902,0.82255 -0.601689,0.273953 -1.246944,0.187343 -0.638802,-0.08574 -1.015476,-0.313661 -0.376673,-0.227917 -0.597056,-0.592507 -0.429594,-0.714543 -0.270232,-1.901812 l 0.0537,-0.400058 q 0.100467,-0.748496 -0.638242,-1.215503 0.494897,-0.16348 0.644735,-0.301019 0.225622,-0.212762 0.265462,-0.509579 l 0.116924,-0.871094 q 0.07362,-0.548467 -0.294566,-0.643868 -0.107962,-0.02763 -0.275728,-0.05015 -0.167766,-0.02252 -0.324446,0.06812 -0.07388,-0.134724 -0.05656,-0.263775 0.01819,-0.135504 0.104366,-0.288156 0.0935,-0.15824 0.255374,-0.287594 0.382302,-0.3034 0.827527,-0.243639 0.445226,0.05976 0.818912,0.261001 0.338476,-0.368402 0.725629,-0.316436 0.664613,0.08921 0.571074,0.786084 l -0.563832,4.20061 q -0.164559,1.225984 0.370353,1.547398 0.170278,0.101681 0.389665,0.131129 0.225839,0.03031 0.418636,-0.03577 0.193663,-0.07254 0.350819,-0.215663 0.294088,-0.282397 0.438685,-0.821336 l 0.438247,-3.26499 q 0.09874,-0.735591 -0.501351,-0.816138 -0.219387,-0.02945 -0.376067,0.06119 -0.07388,-0.134723 -0.05656,-0.263774 0.01819,-0.135504 0.101768,-0.268799 0.0909,-0.138882 0.249311,-0.242426 0.354283,-0.241473 0.805961,-0.180846 0.458131,0.06149 0.831817,0.262734 0.338476,-0.368402 0.725629,-0.316436 0.664613,0.08921 0.571074,0.786084 l -0.287546,2.142246 q -0.03984,0.296817 0.05725,0.454363 0.172704,0.279365 0.606974,0.567563 -0.835713,0.255679 -0.936181,1.004175 l -0.223454,1.664757 q 0.05591,0.513302 0.468872,0.568733 0.219387,0.02945 0.376067,-0.06119 0.07388,0.134724 0.04876,0.321848 -0.02425,0.180671 -0.233893,0.323321 -0.20319,0.143515 -0.596795,0.09068 -0.387153,-0.05197 -0.707876,-0.305217 -0.285817,0.171838 -0.601992,0.129399 z m -0.237102,-1.903935 q 0.394168,-0.09817 0.585013,-1.373181 0.03638,-0.271007 0.08315,-0.619445 0.04677,-0.348437 0.07323,-0.5945 0.03378,-0.25165 0.05764,-0.478355 0.08332,-0.816486 -0.01849,-0.987803 -0.100946,-0.177769 -0.20371,-0.244113 z m -3.570213,-2.666627 0.133683,-0.849138 q 0.07708,-0.574277 0.06348,-0.766598 -0.04387,-0.505117 -0.237836,-0.577134 l -0.0563,0.419416 q -0.146371,1.090481 -0.223975,1.277128 -0.07028,0.181061 -0.192969,0.263126 -0.115366,0.07648 -0.331375,0.119741 0.368965,0.187469 0.394602,0.387975 0.03586,0.320115 -0.110513,1.410596 l -0.0563,0.419416 q 0.199639,-0.01918 0.393258,-0.531838 0.05218,-0.144078 0.129266,-0.718355 z"
       id="path4496"
       inkscape:connector-curvature="0" /><path
       d="m 61.477126,67.506782 q -0.167043,-0.06942 -0.412213,-0.0363 -0.238718,0.03224 -0.352238,0.06728 -0.113519,0.03504 -0.209778,0.100595 -0.204551,0.139306 -0.261248,0.449161 l -0.281557,1.417623 q -0.04222,0.222495 -0.02043,0.383791 0.02091,0.154845 0.0856,0.244652 0.07114,0.08894 0.160757,0.168806 0.199468,0.163578 0.319958,0.180153 -0.484946,0.203452 -0.628816,0.354272 -0.214322,0.21289 -0.294212,0.545586 l -0.545335,2.918247 q -0.140592,0.564257 -0.605125,0.626992 -0.135489,0.0183 -0.296432,-0.006 l -2.877237,-5.057562 -0.853632,5.062129 q -0.06263,0.363212 -0.38541,0.551332 -0.103582,0.05998 -0.232619,0.0774 -0.122585,0.01655 -0.283528,-0.0077 l -1.806064,-3.06056 Q 51.474055,72.096415 50.835343,71.9396 l -0.393376,-0.0914 q 0.410511,-0.462749 0.390471,-0.611142 -0.02004,-0.148392 -0.06973,-0.273073 -0.04968,-0.12468 -0.146795,-0.308651 -0.09066,-0.184842 -0.231354,-0.448331 l -0.355143,-0.635268 q -0.207123,-0.366199 -0.315228,-0.437003 -0.188659,-0.13219 -0.446733,-0.09734 -0.258074,0.03485 -0.385202,0.163703 -0.08056,-0.06139 -0.108437,-0.267845 -0.02788,-0.206459 0.123663,-0.397733 0.150675,-0.197725 0.524882,-0.248261 0.380659,-0.05141 0.734619,0.137293 0.233158,-0.26799 0.620269,-0.320269 0.393562,-0.05315 0.719972,0.126132 0.254257,-0.257701 0.622012,-0.307366 0.367755,-0.04967 0.59774,0.09665 0.229113,0.139866 0.263966,0.39794 0.02091,0.154844 -0.0628,0.264691 -0.170528,-0.09522 -0.306016,-0.07692 -0.129037,0.01743 -0.190942,0.0455 -0.06278,0.02162 -0.109163,0.0673 -0.116838,0.107752 -0.08215,0.267306 l 1.78704,3.260215 0.631345,-3.448856 q -0.28384,-0.447812 -0.638691,-0.39989 -0.212911,0.02875 -0.346492,0.158476 -0.08055,-0.06139 -0.108436,-0.267845 -0.02788,-0.20646 0.149471,-0.401218 0.182933,-0.202082 0.537785,-0.250005 0.354851,-0.04792 0.64255,0.136588 0.247805,-0.256829 0.61556,-0.306494 0.367755,-0.04967 0.686842,0.124037 0.222868,-0.246893 0.500298,-0.284359 0.277429,-0.03747 0.43105,-0.0188 0.159201,0.01135 0.278466,0.06751 0.26434,0.10883 0.298321,0.360453 0.02091,0.154844 -0.0628,0.264691 -0.170528,-0.09522 -0.331824,-0.07344 -0.161296,0.02178 -0.241519,0.157438 -0.07377,0.134784 -0.05286,0.289628 0.02004,0.148393 0.07531,0.26575 l -0.01726,-0.03052 1.611118,3.027762 0.673894,-3.47431 q -0.08209,-0.461919 -0.630497,-0.387857 -0.258074,0.03485 -0.45443,0.186191 -0.08665,-0.106549 -0.112794,-0.300105 -0.02701,-0.200007 0.125407,-0.384828 0.152417,-0.184822 0.455653,-0.225774 0.309689,-0.04182 0.556934,0.135011 0.204384,-0.237826 0.501169,-0.277907 0.296785,-0.04008 0.547868,0.116527 0.21345,-0.219342 0.49088,-0.256808 0.283881,-0.03834 0.459637,0.09559 0.182208,0.133062 0.210961,0.345973 0.02875,0.212911 -0.02269,0.318402 z m -9.230353,1.555316 q 0.02894,0.06836 0.07985,0.153455 z m 3.530177,-0.128562 q -0.0729,0.141235 -0.0485,0.321887 0.0244,0.180652 0.0767,0.324688 0.05875,0.143164 0.139472,0.303071 0.08072,0.159906 0.183411,0.336554 l 0.192477,0.355038 1.49486,2.458775 q 0.04935,-0.07236 0.02844,-0.227204 -0.02091,-0.154845 -0.05247,-0.242557 -0.0251,-0.08858 -0.08856,-0.217973 -0.05701,-0.13026 -0.154989,-0.320683 l -0.239549,-0.460363 z m -4.696944,0.634318 q -0.08248,0.07027 -0.05983,0.238013 0.02265,0.167748 0.04043,0.25075 0.01691,0.07655 0.05753,0.182747 0.08298,0.225296 0.296557,0.590624 0.212704,0.358876 0.224031,0.44275 0.01778,0.083 0.0063,0.143684 -0.01239,0.05423 -0.04413,0.111071 -0.06,0.139493 -0.164449,0.193016 0.463827,0.02933 0.599648,0.208077 l 0.113852,0.162002 q 0.05004,0.07865 0.119079,0.200712 l 0.462023,0.745655 q 0.175569,0.278487 0.326389,0.422357 0.15082,0.14387 0.377153,0.16586 z"
       id="path4498"
       inkscape:connector-curvature="0" /><path
       d="m 61.646759,64.991531 q -0.317824,0.09609 -0.667822,0.01826 -0.343766,-0.07971 -0.584344,-0.313043 -0.254925,-0.235796 -0.580575,-0.300579 -0.100434,-0.01725 -0.22768,-0.03319 l 0.172318,-0.194926 q 0.242608,-0.27739 0.304927,-0.588692 0.06232,-0.311302 0.303767,-0.547532 0.245796,-0.244346 0.582316,-0.346084 0.697967,-0.211012 1.186658,0.28058 0.328693,0.322317 0.827676,0.375506 -0.07652,0.08435 -0.156811,0.156231 -0.07406,0.07 -0.138115,0.150578 -0.143043,0.179274 -0.212898,0.465649 -0.06362,0.284491 -0.280724,0.533765 -0.210869,0.247389 -0.528693,0.343475 z m -0.560141,-0.660432 q -0.05812,-0.05725 -0.109419,-0.136956 -0.04696,-0.08782 -0.116665,-0.318404 -0.06971,-0.230578 0.05971,-0.657387 -0.230579,0.06971 -0.29768,0.185216 -0.06899,0.109275 -0.1,0.186665 -0.02667,0.06928 -0.04522,0.142898 -0.0142,0.06551 -0.04333,0.149129 -0.06754,0.204057 -0.131014,0.264057 0.116665,0.02594 0.23536,0.126086 0.123043,0.09203 0.274781,0.188985 0.230433,0.154782 0.504634,0.07188 -0.05812,-0.05725 -0.118695,-0.100144 -0.05623,-0.05101 -0.112463,-0.102029 z m 2.406927,9.018789 q -0.226376,0.286084 -0.594055,0.397242 -0.361447,0.109275 -0.591156,0.0019 -0.223477,-0.109275 -0.268693,-0.258839 -0.06217,-0.205651 -0.01072,-0.350433 0.169129,0.06449 0.437098,-0.01652 0.26797,-0.08101 0.355651,-0.488403 l -0.601007,-1.987959 q -0.0829,-0.274201 -0.232752,-0.364926 -0.237245,-0.132318 -0.774342,-0.221594 0.37594,-0.331302 0.458548,-0.485503 0.143478,-0.267825 0.05304,-0.566953 l -0.275069,-0.90985 q -0.160143,-0.529707 -0.534778,-0.464056 -0.10971,0.01957 -0.271738,0.06855 -0.162028,0.04899 -0.2671,0.196375 -0.123043,-0.09203 -0.160723,-0.216666 -0.03957,-0.130869 -0.02435,-0.305505 0.01957,-0.182753 0.113333,-0.367534 0.222318,-0.434489 0.646084,-0.562604 0.423765,-0.128114 0.811734,-0.08217 0.184782,-0.491156 0.577389,-0.60985 0.64188,-0.194056 0.845356,0.478984 l 0.646224,2.137524 q 0.09043,0.299128 0.260867,0.390432 0.251593,0.134783 0.748111,0.202319 -0.397679,0.371881 -0.480288,0.526083 -0.116086,0.24594 -0.03319,0.520142 l 0.60666,2.006655 q 0.305505,0.268115 0.567242,0.188985 0.261738,-0.07913 0.36681,-0.226519 0.123043,0.09203 0.17768,0.272752 0.05275,0.174491 -0.07899,0.391157 -0.125507,0.214781 -0.480722,0.322171 -0.355216,0.10739 -0.720865,2.88e-4 -0.195217,0.276665 -0.556664,0.385939 -0.361447,0.109274 -0.714633,-0.0016 z m -0.357094,-3.115924 q -0.05783,-0.213766 -0.101158,-0.357099 -0.0371,-0.145217 -0.06348,-0.232462 l -0.05087,-0.16826 q -0.02826,-0.09348 -0.07971,-0.241158 -0.04522,-0.149565 -0.106086,-0.328404 -0.05464,-0.180724 -0.113622,-0.353332 -0.154926,-0.422461 -0.241302,-0.573185 -0.184056,-0.338839 -0.437387,-0.411882 l 0.122462,0.40507 q 0.318402,1.053182 0.325068,1.25521 0.01101,0.193912 -0.06667,0.319418 -0.07333,0.117391 -0.252027,0.24623 0.413475,0.01783 0.519851,0.18971 0.165216,0.27652 0.483618,1.329703 l 0.122462,0.40507 q 0.230144,-0.273621 0.09232,-0.864487 -0.08942,-0.408259 -0.153476,-0.620142 z"
       id="path4500"
       inkscape:connector-curvature="0" /><path
       d="m 67.940317,71.90561 q -0.18783,0.312747 -0.538223,0.470127 -0.350394,0.15738 -0.582765,0.06905 -0.229099,-0.09694 -0.295786,-0.245407 -0.08803,-0.195982 -0.06271,-0.314407 0.176002,0.04228 0.377924,-0.04842 0.380088,-0.170717 0.327544,-0.589609 L 66.336722,69.39996 q -0.117368,-0.261311 -0.283556,-0.329406 -0.260253,-0.118627 -0.795758,-0.135035 0.330363,-0.376766 0.39252,-0.540286 0.107956,-0.284009 -0.02008,-0.569074 L 65.2404,66.959083 q -0.226734,-0.504804 -0.589861,-0.391664 -0.106295,0.03347 -0.260706,0.102823 -0.154411,0.06935 -0.239719,0.228999 -0.133826,-0.07549 -0.187175,-0.194272 -0.05602,-0.124716 -0.06331,-0.299862 -0.004,-0.183753 0.05934,-0.376364 0.170718,-0.462074 0.5805,-0.646128 0.415721,-0.186722 0.747593,-0.17877 0.161256,-0.51492 0.499772,-0.666965 0.338515,-0.152045 0.541192,-0.05038 0.200009,0.09573 0.346719,0.422365 l 0.250741,0.558254 q 0.06075,-0.691023 0.451204,-1.251793 0.387788,-0.566709 0.987614,-0.836122 0.599826,-0.269413 1.034119,-0.271778 0.437564,-0.01097 0.805824,0.173335 0.721975,0.368009 1.215455,1.4667 l 0.176052,0.391966 q 0.128037,0.285066 0.30877,0.353765 0.269464,0.107353 0.770544,0.110675 -0.34672,0.419798 -0.408877,0.583318 -0.0836,0.258794 0.03377,0.520104 l 0.834914,1.858867 q 0.27822,0.317528 0.658308,0.146811 0.201922,-0.09069 0.28723,-0.250338 0.10534,0.05974 0.182696,0.231968 0.07736,0.172228 -0.0083,0.410537 -0.08239,0.229704 -0.409027,0.376414 -0.326638,0.14671 -0.676578,0.08264 -0.154864,0.290804 -0.475563,0.434846 -0.31476,0.141375 -0.644217,0.07524 -0.181286,0.295535 -0.47823,0.428907 -0.296944,0.133373 -0.535857,0.06226 -0.238914,-0.07112 -0.364284,-0.350243 -0.05868,-0.130655 -0.0043,-0.247872 0.184608,0.04555 0.321202,-0.0158 0.26131,-0.117368 0.243444,-0.459054 L 69.641605,65.9529 q -0.517486,-1.152141 -1.16437,-1.082838 -0.21078,0.0233 -0.424579,0.119331 -0.2138,0.09603 -0.357893,0.267802 -0.146761,0.165836 -0.225879,0.386933 -0.171925,0.491165 -0.01792,0.992949 l 1.701836,3.789 q 0.243544,0.240323 0.504855,0.122955 0.136594,-0.06135 0.225174,-0.229602 0.12376,0.03719 0.21712,0.245054 0.09069,0.201921 -0.01485,0.427749 -0.105541,0.225828 -0.390607,0.353866 -0.279127,0.125371 -0.590766,0.05124 -0.145654,0.27953 -0.472292,0.42624 -0.326638,0.14671 -0.691123,0.08204 z m 3.535794,-3.39376 q 0.246262,-0.246212 -0.0228,-0.924703 -0.263122,-0.681158 -0.5272,-1.269106 -0.264078,-0.587949 -0.482306,-0.946697 -0.220896,-0.364687 -0.406007,-0.538475 -0.187779,-0.179726 -0.355175,-0.218731 -0.164124,-0.04761 -0.338666,-0.05486 0.465748,0.433136 0.698773,0.856607 0.233025,0.423472 0.417079,0.833254 z m -4.289425,0.349334 q -0.08209,-0.19865 -0.140772,-0.329306 -0.05541,-0.139261 -0.09276,-0.222405 -0.03734,-0.08315 -0.07469,-0.166289 -0.04001,-0.08908 -0.10997,-0.228948 -0.06402,-0.142533 -0.147314,-0.312093 -0.07736,-0.172227 -0.163923,-0.333181 -0.201871,-0.40178 -0.306858,-0.540186 -0.225979,-0.312445 -0.486584,-0.352407 l 0.173384,0.386027 q 0.448133,0.997731 0.480645,1.197237 0.03579,0.190899 -0.02516,0.325329 -0.05501,0.131762 -0.215712,0.282448 0.412348,-0.03533 0.537216,0.115557 0.199304,0.253056 0.647437,1.250787 l 0.173384,0.386027 q 0.193165,-0.300869 -0.01067,-0.865918 -0.149629,-0.396696 -0.237655,-0.592679 z"
       id="path4502"
       inkscape:connector-curvature="0" /></g></svg>