<svg
   xmlns:dc="http://purl.org/dc/elements/1.1/"
   xmlns:cc="http://creativecommons.org/ns#"
   xmlns:rdf="http://www.w3.org/1999/02/22-rdf-syntax-ns#"
   xmlns:svg="http://www.w3.org/2000/svg"
   xmlns="http://www.w3.org/2000/svg"
   xmlns:sodipodi="http://sodipodi.sourceforge.net/DTD/sodipodi-0.dtd"
   xmlns:inkscape="http://www.inkscape.org/namespaces/inkscape"
   version="1.1"
   viewBox="0 0 59.533 18.917999"
   xml:space="preserve"
   id="svg38"
   sodipodi:docname="loose.svg"
   inkscape:version="0.92.1 r15371"
   width="59.533001"
   height="18.917999"><metadata
     id="metadata44"><rdf:RDF><cc:Work
         rdf:about=""><dc:format>image/svg+xml</dc:format><dc:type
           rdf:resource="http://purl.org/dc/dcmitype/StillImage" /><dc:title></dc:title></cc:Work></rdf:RDF></metadata><defs
     id="defs42" /><sodipodi:namedview
     pagecolor="#ffffff"
     bordercolor="#666666"
     borderopacity="1"
     objecttolerance="10"
     gridtolerance="10"
     guidetolerance="10"
     inkscape:pageopacity="0"
     inkscape:pageshadow="2"
     inkscape:window-width="1920"
     inkscape:window-height="1027"
     id="namedview40"
     showgrid="false"
     inkscape:zoom="11.428571"
     inkscape:cx="35.720357"
     inkscape:cy="7.3280864"
     inkscape:window-x="1912"
     inkscape:window-y="-8"
     inkscape:window-maximized="1"
     inkscape:current-layer="svg38" /><g
     aria-label="  You loose"
     transform="translate(-21.011336,-56.717123)"
     style="font-style:normal;font-variant:normal;font-weight:normal;font-stretch:normal;font-size:13.33333302px;line-height:1.25;font-family:Rye;-inkscape-font-specification:Rye;letter-spacing:0px;word-spacing:0px;fill:#000000;fill-opacity:1;stroke:none"
     id="text4561"><path
       d="m 23.497297,67.955575 q -0.39123,-0.02422 -0.735108,-0.270849 -0.343877,-0.246632 -0.49227,-0.609436 -0.39123,-0.02422 -0.624009,-0.191168 -0.227488,-0.163157 -0.355846,-0.31931 -0.126862,-0.147069 -0.199215,-0.303114 -0.155288,-0.319679 -0.0073,-0.526005 0.07589,-0.105809 0.190996,-0.143427 0.05189,0.173412 0.242341,0.310008 0.195746,0.140391 0.463584,0.180263 0.273128,0.04367 0.525419,-0.09586 l 0.747484,-1.042213 q 0.174539,-0.24336 0.162787,-0.428047 -0.02131,-0.327745 -0.269423,-0.786102 0.472082,0.09022 0.670451,0.04822 0.327853,-0.07732 0.513775,-0.33655 l 0.136596,-0.190455 0.514106,-5.207455 q -0.109539,-0.495174 -0.347608,-0.665919 -0.238069,-0.170745 -0.440123,-0.17946 -0.02784,-0.08406 0.05563,-0.20045 0.08347,-0.11639 0.188806,-0.185057 0.109126,-0.07396 0.241603,-0.09111 0.283123,-0.03729 0.605839,0.19416 0.322716,0.231454 0.438564,0.594953 0.397322,0.0046 0.757071,0.262566 0.365039,0.261809 0.46881,0.608634 0.4094,0.02122 0.65276,0.195765 0.243359,0.174539 0.36493,0.317813 0.125366,0.137984 0.187139,0.28644 0.139416,0.308296 -0.02454,0.559244 -0.106242,0.148132 -0.190997,0.143428 -0.07834,-0.192385 -0.221179,-0.294832 -0.306844,-0.220071 -0.57698,-0.245568 L 26.545279,63.51589 30.2295,61.551488 q -0.122049,-0.287829 -0.407732,-0.492723 -0.280392,-0.201099 -0.498318,-0.221198 0.004,-0.117299 0.125429,-0.286593 0.121419,-0.169293 0.355324,-0.193816 0.2377,-0.02981 0.502221,0.159903 0.264521,0.189716 0.356324,0.463863 0.267946,-0.01613 0.511305,0.158407 0.24336,0.174539 0.323887,0.408553 0.316254,0.05056 0.549033,0.217512 0.232778,0.166951 0.260294,0.419026 0.0366,0.250578 -0.134145,0.488647 -0.08727,0.12168 -0.175819,0.122266 -0.07305,-0.18859 -0.274084,-0.332775 -0.349167,-0.250426 -0.755575,-0.253481 l -4.48112,2.338245 -0.208688,0.290974 q -0.185923,0.25923 -0.165888,0.465881 0.03569,0.330044 0.272524,0.748267 -0.513712,-0.08803 -0.710585,-0.03694 -0.299103,0.08192 -0.473642,0.325275 l -0.747483,1.042213 q -0.05655,0.279915 0.06711,0.520824 0.128944,0.244702 0.324689,0.385093 0.195746,0.14039 0.376639,0.133928 0.0013,0.121094 -0.07461,0.226902 -0.07209,0.100518 -0.205371,0.141129 -0.13328,0.04061 -0.295201,0.02062 -0.370762,-0.04159 -0.688188,-0.269245 -0.312134,-0.223866 -0.460527,-0.58667 z m -0.11928,-2.112521 q 0.356279,0.09529 0.902555,-0.610524 0.164652,-0.218404 0.331603,-0.451182 l 0.633653,-0.883501 q 0.182128,-0.25394 0.204525,-0.486241 l 0.323161,-2.740585 q 0.05709,-0.559938 0.02487,-0.727258 -0.05247,-0.261961 -0.259492,-0.442485 l -0.522523,4.079774 -0.185922,0.259231 q -0.223866,0.312135 -0.349664,0.398169 -0.20767,0.155504 -0.607768,0.02077 0.2596,0.386481 0.170617,0.611085 -0.06921,0.174692 -0.213393,0.375728 -0.14039,0.195746 -0.257212,0.336289 -0.111532,0.144337 -0.195007,0.260726 z"
       id="path4570"
       inkscape:connector-curvature="0" /><path
       d="m 28.509254,70.217955 q -0.21128,-0.545161 -0.205203,-1.166629 0.01205,-0.618886 0.126903,-1.016064 0.114848,-0.397178 0.125464,-0.520248 0.01659,-0.120487 -0.01979,-0.249677 -0.07019,-0.264356 -0.394783,-0.645712 0.620655,-0.0085 0.986138,-0.460475 0.103802,-0.125364 0.189674,-0.258474 0.617555,-1.002673 1.80594,-1.340316 1.190966,-0.34362 2.36237,0.162437 1.219217,0.526713 1.782775,1.635396 0.547398,1.080425 0.240624,2.217358 -0.108872,0.39976 -0.07617,0.619555 0.06636,0.404542 0.358636,0.729383 -0.491609,0.02166 -0.675688,0.119431 -0.251734,0.139467 -0.417502,0.408268 -0.800585,1.327845 -1.907066,1.722147 -1.1039,0.388325 -2.418742,-0.179698 -1.410466,-0.609334 -1.863577,-1.776682 z m 4.995144,-2.714234 q 0.645482,-1.494138 -0.370532,-1.933066 -1.016014,-0.438927 -1.661496,1.055211 l -1.143792,2.647613 q -0.619663,1.434373 0.390375,1.870718 1.02199,0.441509 1.641653,-0.992863 z m -0.804999,3.439344 q 0.347885,0.01554 0.666943,-0.640923 0.325035,-0.653882 0.464459,-0.976616 0.142006,-0.32871 0.228979,-0.546448 0.09553,-0.221133 0.190249,-0.4568 0.353055,-0.882905 0.301467,-1.075398 -0.05159,-0.192494 -0.132534,-0.284199 z m -3.579955,-1.546573 q 0.112073,-0.0296 0.14822,-0.113267 0.0568,-0.131484 0.0908,-0.357925 0.160324,-1.044177 0.317821,-1.408747 0.160079,-0.370546 0.271771,-0.563421 0.114274,-0.198852 0.2405,-0.39254 0.253266,-0.37284 0.471198,-0.647474 0.141575,-0.179966 0.172558,-0.251684 0.06197,-0.143438 0.0067,-0.245327 -0.380112,0.190387 -0.728478,0.635615 -0.348366,0.445228 -0.597281,0.791581 -0.09959,0.148457 -0.486876,0.158447 0.258185,0.288838 0.22352,0.451161 -0.215213,1.105569 -0.190544,1.442456 0.02467,0.336888 0.0601,0.501125 z"
       id="path4572"
       inkscape:connector-curvature="0" /><path
       d="m 41.106715,75.091551 q -0.899139,-0.184974 -0.71347,-1.442895 -0.445913,0.519767 -1.071542,0.749986 -0.619252,0.23153 -1.256939,0.100343 -0.631311,-0.129876 -0.991257,-0.383387 -0.359945,-0.253512 -0.554492,-0.632519 -0.378962,-0.742637 -0.137578,-1.915982 l 0.08134,-0.395366 q 0.152177,-0.739717 -0.552337,-1.256871 0.505051,-0.128735 0.664073,-0.255543 0.239845,-0.196588 0.300192,-0.489924 l 0.177102,-0.860878 q 0.111509,-0.542035 -0.249166,-0.662761 -0.105783,-0.03506 -0.271582,-0.06916 -0.165799,-0.03411 -0.328392,0.04544 -0.06435,-0.139527 -0.03811,-0.267065 0.02755,-0.133914 0.124115,-0.280217 0.104254,-0.151368 0.274718,-0.269175 0.402439,-0.276134 0.842443,-0.185615 0.440004,0.09052 0.79882,0.317211 0.363231,-0.34402 0.745843,-0.265308 0.656818,0.135123 0.515136,0.823825 l -0.854028,4.151345 q -0.249256,1.211606 0.262058,1.569372 0.16281,0.113255 0.379624,0.157858 0.22319,0.04592 0.420109,-0.0066 0.198231,-0.05892 0.364942,-0.190793 0.312979,-0.261304 0.494634,-0.788908 l 0.663807,-3.226698 q 0.149553,-0.726964 -0.443496,-0.848968 -0.216814,-0.0446 -0.379407,0.03494 -0.06435,-0.139526 -0.03811,-0.267064 0.02755,-0.133914 0.120179,-0.261087 0.100319,-0.132237 0.265536,-0.224537 0.370189,-0.2163 0.81657,-0.124469 0.452758,0.09314 0.811574,0.319835 0.363231,-0.344021 0.745843,-0.265309 0.656818,0.135123 0.515136,0.823825 l -0.435541,2.117122 q -0.06035,0.293337 0.02558,0.457242 0.152897,0.290678 0.566117,0.608323 -0.851444,0.197056 -1.003621,0.936774 l -0.338463,1.645233 q 0.02015,0.515945 0.428267,0.599905 0.216813,0.0446 0.379406,-0.03494 0.06435,0.139526 0.02631,0.324456 -0.03673,0.178552 -0.255771,0.306307 -0.212661,0.129066 -0.60165,0.04904 -0.382612,-0.07871 -0.684984,-0.353613 -0.297054,0.151585 -0.609521,0.0873 z m -0.104382,-1.915799 q 0.400031,-0.07058 0.678912,-1.329265 0.0551,-0.267829 0.12594,-0.61218 0.07084,-0.344351 0.114315,-0.587984 0.05116,-0.248698 0.0907,-0.473201 0.139788,-0.808733 0.05011,-0.986704 -0.08836,-0.184347 -0.186276,-0.257664 z m -3.376518,-2.907998 0.192298,-0.837812 q 0.116756,-0.567542 0.116539,-0.760342 -0.0087,-0.506944 -0.197204,-0.592251 l -0.08527,0.414497 q -0.221706,1.077692 -0.312077,1.258503 -0.08268,0.175746 -0.210767,0.249098 -0.120397,0.06829 -0.338887,0.09645 0.355063,0.212626 0.366722,0.414427 0.01355,0.321833 -0.208154,1.399524 l -0.08527,0.414497 q 0.200489,-0.0053 0.429223,-0.50326 0.06206,-0.140109 0.178814,-0.70765 z"
       id="path4574"
       inkscape:connector-curvature="0" /><path
       d="m 48.542099,75.423902 q -0.298601,0.209591 -0.682712,0.211206 -0.377601,0.0016 -0.567113,-0.166887 -0.183002,-0.168503 -0.183659,-0.324751 -9.03e-4,-0.214842 0.08972,-0.338922 0.143694,0.110073 0.365046,0.109142 0.377601,-0.0016 0.538525,-0.438466 l -0.0084,-2.005191 q -0.0012,-0.286456 -0.118939,-0.41617 -0.189622,-0.194517 -0.678912,-0.433346 0.454849,-0.210249 0.584509,-0.341003 0.207428,-0.215718 0.206114,-0.528216 l -0.01547,-3.678352 q -0.0031,-0.742181 -0.608585,-0.739635 -0.221352,9.31e-4 -0.364115,0.112209 -0.09166,-0.123313 -0.09221,-0.25352 -5.75e-4,-0.136718 0.06401,-0.260688 0.07109,-0.123998 0.213883,-0.228766 0.305056,-0.22264 0.773802,-0.224611 0.468746,-0.002 0.729407,0.05553 0.35618,-0.450721 0.805395,-0.45261 0.651036,-0.0027 0.653993,0.700381 l 0.02086,4.960893 q 0.0013,0.312497 0.138607,0.44864 0.202697,0.207483 0.659298,0.413897 -0.487264,0.242937 -0.61044,0.367154 -0.181441,0.202588 -0.180237,0.489044 l 0.0084,2.00519 q 0.158084,0.435537 0.542195,0.433922 0.221352,-9.31e-4 0.364114,-0.11221 0.09167,0.123314 0.09246,0.312114 7.66e-4,0.18229 -0.187322,0.352354 -0.181578,0.170036 -0.552669,0.171596 -0.37109,0.0016 -0.690974,-0.205429 -0.266049,0.209454 -0.637139,0.211015 -0.36458,0.0015 -0.671443,-0.205511 z m 0.181846,-1.654426 q 0.292172,-0.190032 0.341571,-0.828266 0.01835,-0.280028 0.02341,-0.625104 0.0051,-0.345077 0.0045,-0.488305 0.0059,-0.149765 0.0056,-0.221379 l -0.0025,-0.585932 q -10e-4,-0.240884 -0.0088,-0.546843 l -0.0027,-0.638015 q -0.02679,-1.725163 -0.07318,-1.920282 -0.09287,-0.40977 -0.314825,-0.552067 l 0.0092,2.193991 q 0.0057,1.347645 -0.02623,1.50403 -0.02541,0.149848 -0.04464,0.221544 -0.05774,0.202067 -0.441308,0.33389 0.391197,0.135075 0.444073,0.323656 0.07944,0.312169 0.08404,1.405909 z"
       id="path4576"
       inkscape:connector-curvature="0" /><path
       d="m 53.477388,74.626082 q -0.462461,-0.357728 -0.778198,-0.893049 -0.309287,-0.536197 -0.416051,-0.935625 -0.106764,-0.399427 -0.16123,-0.510297 -0.04801,-0.111746 -0.145889,-0.203586 -0.196623,-0.190131 -0.671528,-0.349068 0.52712,-0.327765 0.606661,-0.903586 0.02415,-0.160959 0.02894,-0.319292 0.01103,-1.177542 0.854312,-2.080389 0.842408,-0.909298 2.106861,-1.080887 1.316062,-0.178593 2.371207,0.479772 1.026713,0.642512 1.351153,1.774531 0.113216,0.398552 0.254727,0.569881 0.265743,0.312153 0.683784,0.439386 -0.409797,0.272423 -0.516936,0.451215 -0.143544,0.249432 -0.146681,0.565222 1.66e-4,1.550518 -0.743722,2.459587 -0.744764,0.902617 -2.164048,1.095217 -1.522503,0.206608 -2.513364,-0.559032 z m 2.875804,-4.903905 q -0.218864,-1.612821 -1.315582,-1.463994 -1.096719,0.148828 -0.877855,1.76165 l 0.387827,2.85792 q 0.21011,1.548308 1.300377,1.400356 1.10317,-0.149703 0.893061,-1.698012 z m 1.086818,3.360944 q 0.30593,-0.166348 0.240136,-0.893269 -0.05934,-0.727797 -0.106618,-1.076166 -0.04815,-0.354821 -0.08612,-0.586192 -0.03239,-0.238698 -0.07299,-0.489422 -0.153622,-0.938386 -0.297207,-1.076583 -0.143586,-0.138198 -0.260261,-0.174925 z m -3.864321,0.524398 q 0.08069,-0.08322 0.06843,-0.173538 -0.01926,-0.141929 -0.107087,-0.353393 -0.40195,-0.976959 -0.455353,-1.370487 -0.05428,-0.39998 -0.05824,-0.622825 -0.0048,-0.229297 0.0032,-0.460345 0.02434,-0.450068 0.06913,-0.797792 0.0283,-0.227223 0.01779,-0.304638 -0.02101,-0.154831 -0.120959,-0.213539 -0.227181,0.359334 -0.295571,0.920502 -0.06839,0.561168 -0.102679,0.986307 -0.0086,0.178562 -0.335102,0.387119 0.370256,0.114007 0.424399,0.270912 0.386649,1.057876 0.581751,1.333624 0.195102,0.275748 0.310256,0.398093 z"
       id="path4578"
       inkscape:connector-curvature="0" /><path
       d="m 62.176453,73.095884 q -0.516778,-0.27346 -0.919331,-0.746968 -0.396346,-0.475473 -0.569781,-0.850788 -0.173435,-0.375315 -0.246042,-0.47525 -0.0664,-0.101899 -0.178526,-0.175667 -0.226216,-0.153743 -0.721291,-0.229208 0.463371,-0.413003 0.443367,-0.993948 -0.0037,-0.162718 -0.02603,-0.319542 -0.190314,-1.162113 0.486324,-2.195758 0.674674,-1.039851 1.89122,-1.424944 1.266202,-0.400812 2.418313,0.06761 1.121389,0.457656 1.63446,1.517602 0.179642,0.37335 0.348343,0.517984 0.315166,0.262162 0.748799,0.316104 -0.35723,0.33843 -0.432249,0.532897 -0.09882,0.270289 -0.04796,0.581972 0.265064,1.527694 -0.312577,2.550488 -0.579606,1.016586 -1.945117,1.448834 -1.464821,0.463684 -2.571921,-0.121414 z m 1.995711,-5.323127 q -0.491191,-1.551717 -1.546358,-1.217707 -1.055168,0.334009 -0.563978,1.885727 l 0.87039,2.749643 q 0.471543,1.489649 1.520504,1.157604 1.061375,-0.335975 0.589832,-1.825623 z m 1.645043,3.125852 q 0.273013,-0.216169 0.08399,-0.921162 -0.182813,-0.706958 -0.28891,-1.042129 -0.108062,-0.341378 -0.185,-0.562861 -0.0727,-0.229654 -0.155529,-0.469757 -0.311683,-0.898344 -0.476767,-1.009978 -0.165085,-0.111635 -0.28632,-0.127889 z m -3.717915,1.176892 q 0.06528,-0.09578 0.03778,-0.182678 -0.04322,-0.136551 -0.165889,-0.329902 -0.562949,-0.893923 -0.6828,-1.272542 -0.121815,-0.384826 -0.163789,-0.603719 -0.04394,-0.225099 -0.07547,-0.454128 -0.05291,-0.447609 -0.06819,-0.797873 -0.01094,-0.228717 -0.03452,-0.303199 -0.04716,-0.148965 -0.155663,-0.189734 -0.162451,0.392864 -0.133962,0.957466 0.02849,0.564601 0.06734,0.989348 0.02201,0.177409 -0.264038,0.438678 0.38429,0.04907 0.464444,0.194422 0.561699,0.976265 0.801043,1.214627 0.239344,0.238362 0.373707,0.339234 z"
       id="path4580"
       inkscape:connector-curvature="0" /><path
       d="m 70.585291,70.655521 q -0.211548,0.574733 -0.579928,0.755076 -0.204656,0.100192 -0.355099,-0.01462 0.06865,-0.200328 0.0028,-0.334816 -0.06584,-0.134488 -0.141122,-0.184617 l -0.141855,-0.09727 0.179435,0.129618 q -0.171824,0.0044 -0.322266,-0.110434 -0.150443,-0.114816 -0.256359,-0.331167 -0.108779,-0.222198 -5.97e-4,-0.623098 -0.197099,-0.106472 -0.294428,-0.305281 -0.09733,-0.198808 -0.09599,-0.358938 0.0043,-0.168839 0.05805,-0.325618 0.125114,-0.336702 0.388243,-0.465519 0.175419,-0.08588 0.311549,-2.98e-4 -0.07486,0.246862 0.105482,0.615243 0.177481,0.362533 0.426229,0.5597 0.254596,0.194304 0.559687,0.269655 0.645022,0.162639 1.311615,-0.163698 0.742608,-0.36355 0.762904,-1.047618 0.0017,-0.203801 -0.07844,-0.367525 -0.08302,-0.169572 -0.222008,-0.260999 -0.141855,-0.09727 -0.324763,-0.159953 -0.301984,-0.09862 -0.848945,-0.149792 -0.543732,-0.089 -1.093379,0.180086 -0.356686,0.174619 -0.450853,0.293206 -0.0099,-0.212633 -0.09574,-0.388052 -0.08588,-0.175419 -0.419962,-0.265571 -0.336946,-0.096 -0.627114,-0.214899 -0.28432,-0.121762 -0.498472,-0.277876 -0.416855,-0.288838 -0.634413,-0.733234 -0.217558,-0.444395 -0.202322,-0.87228 0.01822,-0.436595 0.231288,-0.84535 0.441058,-0.86106 1.528657,-1.393504 0.526258,-0.257634 0.74212,-0.305322 0.22171,-0.05055 0.358694,-0.06687 0.186504,-0.01882 0.414549,-0.130458 0.228045,-0.111642 0.26709,-0.253985 0.04489,-0.145206 0.0048,-0.227068 -0.04294,-0.08771 -0.08338,-0.125901 0.02936,-0.02887 0.09953,-0.06322 0.07017,-0.03435 0.177916,-0.03636 0.113595,-0.0049 0.218114,0.03095 0.217625,0.08918 0.306366,0.270441 0.08588,0.17542 0.06151,0.303328 0.238152,0.07188 0.375557,0.352548 0.137405,0.280671 -0.002,0.588136 0.104152,0.07949 0.17858,0.231518 0.07443,0.15203 -0.0206,0.372518 -0.09502,0.220489 -0.241205,0.292054 -0.251434,0.123092 -0.370632,0.10171 -0.01559,-0.224327 -0.121505,-0.440678 -0.108779,-0.222198 -0.323053,-0.363754 -0.214275,-0.141557 -0.455656,-0.175609 -0.453648,-0.06786 -0.921433,0.161146 -0.590578,0.289123 -0.612028,0.763542 -0.0071,0.148435 0.06164,0.28877 0.06584,0.134489 0.158175,0.234259 0.09532,0.09106 0.240283,0.165068 0.281213,0.14503 0.691312,0.197967 0.532281,0.06561 0.690158,-0.01168 0.339144,-0.166031 0.510426,-0.452848 0.06724,0.315022 0.121626,0.426121 0.08302,0.169572 0.460771,0.26009 1.009075,0.151135 1.495731,0.449293 0.469236,0.29219 0.721145,0.806753 0.251909,0.514563 0.204208,0.994585 -0.05056,0.474175 -0.313516,0.929098 -0.546554,0.941702 -1.704322,1.508497 -0.789386,0.386451 -1.572858,0.414819 z m -2.8268,-5.255944 q -0.129495,0.164878 0.05371,0.539105 0.180344,0.368381 0.586115,0.590158 0.402908,0.21593 1.129426,0.382165 0.168595,0.03344 0.211534,0.121152 0.06584,0.134488 0.08253,0.227801 0.06158,-0.05189 0.228411,-0.155313 0.406816,-0.249902 1.25302,-0.120514 1.309174,0.127447 1.644098,0.811582 0.125955,0.257282 0.118764,0.420274 0.190465,-0.143985 0.146983,-0.514129 -0.01656,-0.10787 -0.06523,-0.207275 -0.231871,-0.473632 -0.98403,-0.707049 -0.749175,-0.242128 -1.931416,-0.228751 -1.985508,-0.0283 -2.473914,-1.159206 z"
       id="path4582"
       inkscape:connector-curvature="0" /><path
       d="m 79.292666,63.486881 q -0.03355,-0.30685 0.285325,-0.521007 0.216186,-0.145192 0.454871,-0.04669 0.191658,0.07519 0.32959,0.280562 0.134302,0.199971 0.169545,0.474314 0.03524,0.274342 -0.03059,0.561669 -0.06583,0.287327 -0.211115,0.573119 -0.13988,0.282163 -0.341227,0.542867 -0.415277,0.537702 -0.993574,0.926089 -0.578297,0.388386 -1.213376,0.540424 -0.633304,0.143002 -1.227722,0.0403 -1.165361,-0.205484 -2.120648,-1.289242 -0.215692,-0.239419 -0.378392,-0.29484 -0.296441,-0.09108 -0.792775,-0.02438 0.328643,-0.526573 0.146193,-1.078487 -0.04928,-0.15512 -0.114779,-0.299351 -0.503725,-1.041962 -0.126908,-2.267495 0.364313,-1.185765 1.353363,-1.850016 1.026883,-0.689659 2.26452,-0.469976 1.279179,0.223152 2.008766,1.309485 0.02541,0.03783 0.04541,0.07929 0.02541,0.03783 0.05259,0.06663 0.058,0.063 0.140921,0.02299 0.180768,0.05897 0.275143,0.199491 0.217787,0.324279 -0.08818,0.616036 -0.07558,0.07429 -0.241194,0.224727 l -2.721539,2.533616 0.348459,0.518846 q 0.421055,0.626939 1.046206,0.74037 0.592642,0.111736 1.138512,-0.254872 0.578297,-0.388387 0.769888,-0.862127 0.177232,-0.448412 -0.06959,-0.815928 -0.05808,-0.08648 -0.157695,-0.176419 z m -2.118234,-1.110488 -1.016339,-1.5133 q -0.239566,-0.356707 -0.49261,-0.429876 -0.440992,-0.119477 -0.684201,0.04386 -0.243209,0.16334 -0.354532,0.347899 -0.114952,0.179154 -0.12859,0.415743 -0.0272,0.496654 0.441045,1.193853 l 0.83848,1.248473 z m 0.709143,-0.672324 -0.112523,-0.167544 q -0.67514,-1.005264 -0.984246,-1.103522 -0.137371,-0.04106 -0.258288,-0.02259 l 1.056267,1.572752 z m -1.850724,4.262289 q 0.03574,-0.110268 -0.01508,-0.185933 -0.07985,-0.118902 -0.25191,-0.269992 -0.791466,-0.699708 -1.012883,-1.029392 -0.225047,-0.335088 -0.326841,-0.533365 -0.105424,-0.203682 -0.194634,-0.418253 -0.181969,-0.411073 -0.295053,-0.742931 -0.07477,-0.216426 -0.118328,-0.281282 -0.08711,-0.129712 -0.202708,-0.138346 -0.04551,0.422683 0.140494,0.956529 0.186,0.533845 0.342641,0.93056 0.07098,0.164074 -0.130125,0.495198 0.382595,-0.06089 0.500363,0.05608 0.813405,0.779083 1.110087,0.940582 0.296681,0.161499 0.453977,0.22055 z"
       id="path4584"
       inkscape:connector-curvature="0" /></g></svg>