<?xml version="1.0" encoding="utf-8"?>
<!-- Generator: Adobe Illustrator 19.2.1, SVG Export Plug-In . SVG Version: 6.00 Build 0)  -->
<svg width="600px" height="600px"
	 viewBox="0 0 600 600" xml:space="preserve">
<style type="text/css">
	.st0{fill:#EEEEEE;stroke:#CCCCCC;stroke-width:11.4403;stroke-linecap:round;stroke-linejoin:round;}
	.st1{clip-path:url(#SVGID_2_);fill:#FFFFFF;stroke:#888888;stroke-width:3.5287;stroke-linecap:round;stroke-linejoin:round;}
	
		.st2{clip-path:url(#SVGID_2_);fill:#FFFFFF;fill-opacity:9.615383e-002;stroke:#888888;stroke-width:3.5287;stroke-linecap:round;stroke-linejoin:round;}
	.st3{display:none;}
	.st4{display:inline;}
	.st5{fill:#00BCD4;stroke:#00BCD4;stroke-width:1.417;}
	.st6{fill:#00BCD4;stroke:#00BCD4;stroke-width:1.1336;}
	.st7{clip-path:url(#SVGID_4_);fill:#FFFFFF;stroke:#888888;stroke-width:3.5287;stroke-linecap:round;stroke-linejoin:round;}
	
		.st8{clip-path:url(#SVGID_4_);fill:#FFFFFF;fill-opacity:0.1667;stroke:#888888;stroke-width:3.5287;stroke-linecap:round;stroke-linejoin:round;}
	.st9{fill:#66D7E5;stroke:#00BCD4;stroke-width:11.4403;stroke-linecap:round;stroke-linejoin:round;}
	.st10{clip-path:url(#SVGID_6_);}
	.st11{fill:#EEEEEE;stroke:#444444;stroke-width:3.5287;stroke-linecap:round;stroke-linejoin:round;}
	.st12{fill:#FFFFFF;fill-opacity:6.089753e-002;stroke:#444444;stroke-width:3.5287;stroke-linecap:round;stroke-linejoin:round;}
	.st13{clip-path:url(#SVGID_8_);fill:#FFFFFF;stroke:#888888;stroke-width:3.5287;stroke-linecap:round;stroke-linejoin:round;}
	.st14{clip-path:url(#SVGID_10_);fill:#FFFFFF;stroke:#888888;stroke-width:3.5287;stroke-linecap:round;stroke-linejoin:round;}
</style>
<g id="rock" transform="matrix(0,0.283393,-0.283393,0,227.46772,497.158)">
	
		<path id="use3420" sodipodi:cx="-126.15619" sodipodi:cy="-211.35745" sodipodi:rx="343.83746" sodipodi:ry="343.83746" sodipodi:type="arc" class="st0" d="
		M-64.9-984.4c166,0,300.5,134.6,300.5,300.5S101.1-383.3-64.9-383.3s-300.5-134.6-300.5-300.5S-230.9-984.4-64.9-984.4z"/>
	<g>
		<defs>
			<circle id="SVGID_1_" cx="-64.9" cy="-683.9" r="85.2"/>
		</defs>
		<clipPath id="SVGID_2_">
			<use xlink:href="#SVGID_1_"  style="overflow:visible;"/>
		</clipPath>
		<path id="path2432"  sodipodi:nodetypes="csssssssssssscscsssssssssscc" class="st1" d="M36-369
			c0,0-34.9-81.5-44.4-106.8c-4.5-11.9-5.9-29.6-12.2-40.7c-7.3-12.9-20.4-29.2-33.3-36.7c-5.6-3.3-55.3-13.7-78.1-19.7
			c-4.2-1.1-29.3-11.5-42.1-19.7c-16.7-10.6-37.8-32.3-53.6-44.1c-5.2-3.9-13.7-6.9-18.3-11.5c-9.2-9.2-18.7-24.4-23.1-36.7
			c-2.2-6-3.1-12.4-0.7-18.3c0.9-2.1,4.4-5.2,4.1-7.5c-2.3-16.1-4.8-48.1,4.1-65.8c4.1-8.1,14.8-15.9,23.1-19.7
			c7.3-3.3,16.5,1.4,21.7,2.5c3.5-7.2,38.2-33.8,51.6-38.4c5.2-1.8,8.6,0.2,13.9-1.4c5.4-4.3,16.6-11.1,24.2-14.3
			c8.9-3.7,21.8-5.7,31.2-7.5c12.9-2.4,30.7-9.3,43.4-6.1c10,2.5,15.5,15.3,25.1,19c1.7,0.7,7.5,2.1,8.8,3.4
			c20,19.3,35.7,49.1,65.2,80.1c14.3,15.1,30.7,29.7,41.4,47.5c5,8.3,12.3,24.5,16.3,33.3c7.1,15.7,19.8,30,27.1,47.5
			c4.5,10.7,15,40.1,22.4,55.7c14.1,29.4,42.1,69.7,50.2,88.9C204.1-486,36-369,36-369z"/>
		<path id="path3224"  sodipodi:nodetypes="cc" class="st2" d="M-216.2-794.6
			c-2.4,4.5-4.8,12-7.3,18.6"/>
		<path id="path3226"  sodipodi:nodetypes="czc" class="st2" d="M-232.6-725.6
			c1.8-4.8-5.4-26-1.3-38.2c4-12.2,22.1-16.9,26.7-24"/>
		<path id="path3228"  sodipodi:nodetypes="czcc" class="st2" d="M-188.7-776.8
			c4.9-7,3.2-24.2,8.6-32.1c5.4-7.8,20.3-10.4,28.8-17.2l0,0"/>
		<path id="path3230"  sodipodi:nodetypes="cc" class="st2" d="M-150.2-834.4
			c-7.4,6-10.2,10.2-14.3,14.8"/>
		<path id="path3232"  sodipodi:nodetypes="czcc" class="st2" d="M-120-844.9
			c2.1,1,12.1-7.2,17.5-8.9s15.8,0.6,18.6,0l0,0"/>
	</g>
	<g id="arrows_4_" class="st3">
		<g id="g12215" class="st4">
			<path id="path3520"  class="st5" d="M-1056.6-333.1l708.5-249.2l-1.7-4.7l-708.5,249.2
				L-1056.6-333.1z"/>
			<path id="path12221"  class="st6" d="M-1010.2-352l12.2-25.5l-59.4,42.1l72.7-4.4L-1010.2-352
				L-1010.2-352z"/>
		</g>
		<g id="g12199" class="st4">
			<path id="path3516"  class="st5" d="M-676.8,170.1l429.2-606.8l-4.1-3l-429.2,606.9
				L-676.8,170.1z"/>
			<path id="path12205"  class="st6" d="M-278.6-397.4l4.8,27.9l24.1-68.7l-56.7,45.6L-278.6-397.4
				L-278.6-397.4z"/>
		</g>
		<g id="g12175" class="st4">
			<path id="path3510"  class="st5" d="M-356.8-767.3l1.4-4.9l-224.2-68.3l-1.4,4.9L-356.8-767.3z"
				/>
			<path id="path12181"  class="st6" d="M-403.9-784.3l-25,13.3l72.8,1.3l-61.1-39.5L-403.9-784.3z
				"/>
		</g>
		<g id="g12167_1_" class="st4">
			<path id="path3508_1_"  class="st5" d="M-56.4-155.7l5-0.1l-4.6-222.5l-5,0.1L-56.4-155.7z"/>
			<path id="path12173_1_"  class="st6" d="M-55-205.8l-20.4-19.6l21.4,69.6l18.5-70.4L-55-205.8z"
				/>
		</g>
	</g>
</g>
<g id="paper" transform="matrix(0,0.283393,-0.283393,0,427.95892,389.90237)">
	
		<path id="use3422" sodipodi:cx="-126.15619" sodipodi:cy="-211.35745" sodipodi:rx="343.83746" sodipodi:ry="343.83746" sodipodi:type="arc" class="st0" d="
		M-495.3-516.9c166,0,300.5,134.6,300.5,300.5S-329.4,84.2-495.3,84.2S-795.9-50.4-795.9-216.4S-661.3-516.9-495.3-516.9z"/>
	<g>
		<defs>
			<circle id="SVGID_3_" cx="-495.3" cy="-216.4" r="85.2"/>
		</defs>
		<clipPath id="SVGID_4_">
			<use xlink:href="#SVGID_3_"  style="overflow:visible;"/>
		</clipPath>
		<path id="path3240"  sodipodi:nodetypes="csssssssscsssssscsscssscssssssssc" class="st7" d="
			M-322.4,139.7c-0.2,0.7-38.7-83.8-59-120.8c-2-3.7-20.1-1.3-27.8-4.8c-9.4-4.1-94.8-32.7-102.5-35.3c-2.1-0.7-20.7-19.3-41.2-35.1
			c-20.6-15.9-38.9-25.9-42.3-34.1c-3.4-8.1-3.5-16-7.3-29.7c-3.2-11.8-8.5-21.1-10.4-25.2c-3.3-7.4-6.9-17.9-4.1-25.1
			c2.6-6.7,8.3-4.1,14.9-5.4c-7.5-7.1-14.7-17.8-22.3-26.6c-7.5-8.7-15.4-15.5-21.9-23c-6-7-12.5-17.1-19.5-25.3
			c-6.3-7.4-13-12.8-17.8-19.5c-8.7-12.4-23.6-32.8-27.1-47.5c-2.6-11,1.1-20.2,14.3-25.8c4.2-1.8,12.6,1.8,17,4.1
			c-13.4-19.8-20.6-21.8-23.8-31.9c-6.1-19.2,3.8-28.3,19-29.9c12.1-1.3,24.4,11.3,34.6,21.7c-12.2-17.2,6.2-30.3,20.4-31.2
			c6.4-0.4,11.5,4.2,17.8,8.7c8.2,5.8,17.8,11.4,25,15.8c15.5,9.5,8.3,6.4,54.3,40.7c-25.8-30.8-36-29.8-36.7-42.8
			c-0.5-9.2,6.1-11.6,14.9-14.3c11.4-3.4,30.7,9.2,40.7,15.6c18.4,11.8,40.2,31.5,57,45.5c13.4,11.2,30.3,27.3,44.1,38
			c13.5,10.5,35.1,20.1,46.8,32.6c43.1,45.8,105.3,116.4,118.1,152c19.6,54.5,92.3,185.4,94.3,184.6
			C-149.6,64.4-323.1,139.7-322.4,139.7z"/>
		<path id="path3242"  sodipodi:nodetypes="ccc" class="st8" d="M-680.8-340.8l67.9,75.3
			c22.1,22.2,49.5,45.3,61.7,65.9"/>
		<path id="path3244"  sodipodi:nodetypes="ccc" class="st8" d="M-649.6-380.2
			c26.3,23.4,50.7,43.1,80.3,73c24.3,18.3,39.5,48.6,58.1,57.3"/>
		<path id="path3246"  sodipodi:nodetypes="cc" class="st8" d="M-534.2-347.6
			c44,33.4,36.3,46.2,91.6,77.4"/>
		<path id="path3248"  sodipodi:nodetypes="ccc" class="st8" d="M-497.5-32.7
			c-43.4-47-62.2-95-105.2-143.2l0,0"/>
	</g>
	<g id="arrows_3_" class="st3">
		<g id="g12159" class="st4">
			<path id="path3506"  class="st5" d="M-782.4,226.9l122.7-191.4l-4.2-2.6l-122.7,191.4
				L-782.4,226.9z"/>
			<path id="path12165"  class="st6" d="M-688.8,76.2l6,27.6l20.9-69.7l-54.6,48.1L-688.8,76.2
				L-688.8,76.2z"/>
		</g>
		<g id="g12207" class="st4">
			<path id="path3518"  class="st5" d="M-484.5,813.9l5-0.1l-9.4-724.7l-5,0.1L-484.5,813.9z"/>
			<path id="path12213"  class="st6" d="M-482.6,763.9l-20.3-19.7l20.9,69.7l19.1-70.3
				L-482.6,763.9z"/>
		</g>
		<g id="g12191" class="st4">
			<path id="path3514"  class="st5" d="M148.8,615.5l4-3.1l-466.1-587l-3.9,3.1L148.8,615.5z"/>
			<path id="path12197"  class="st6" d="M-284.2,66.1l28.1,3.2l-59.2-42.4l27.9,67.3L-284.2,66.1
				L-284.2,66.1z"/>
		</g>
		<g id="g12175_1_" class="st4">
			<path id="path3510_1_"  class="st5" d="M21.7-59.8l1.4-4.9L-201.1-133l-1.4,4.9L21.7-59.8z"/>
			<path id="path12181_1_"  class="st6" d="M-25.5-76.8l-25,13.3l72.8,1.3l-61.1-39.5L-25.5-76.8z"
				/>
		</g>
	</g>
</g>
<g id="scissors" transform="matrix(0,0.283393,-0.283393,0,561.15154,23.972742)">
	
		<path id="use3424" sodipodi:cx="-126.15619" sodipodi:cy="-211.35745" sodipodi:rx="343.83746" sodipodi:ry="343.83746" sodipodi:type="arc" class="st9" d="
		M325.9,638.3c166,0,300.5,134.6,300.5,300.5s-134.6,300.5-300.5,300.5S25.4,1104.8,25.4,938.8S159.9,638.3,325.9,638.3z"/>
	<g>
		<defs>
			<circle id="SVGID_5_" cx="325.9" cy="938.8" r="85.2"/>
		</defs>
		<clipPath id="SVGID_6_">
			<use xlink:href="#SVGID_5_"  style="overflow:visible;"/>
		</clipPath>
		<g class="st10">
			
				<path id="path3275"  sodipodi:nodetypes="csssssssssssssssssssssssssssssssscc" class="st11" d="
				M496.8,1290.1c-1.2-0.5-50.1-108.6-65.2-134.4c-2.6-4.4-99.1-70.2-143.9-114c-6.3-6.2-17-8.3-26.5-14.6
				c-7.7-5.1-14.1-14.5-20.3-18c-22.1-12.4-53.9-24.4-76-36.7c-14.3-7.9-32.5-20.1-46.2-29.2c-11.8-7.9-33.7-21.6-44.1-31.2
				c-11.3-10.5-13.4-31.8,8.8-35.3c12.9-2,38.9,15.3,55,22.4c14.4,6.4,33.5,15.4,48.2,21c9.8,3.8,21.5,6.5,33.3,10.8
				c10.7,3.9,21.6,9.4,31.2,8.9c6-0.3,13.9-2.1,17.6-6.8c4.4-5.6-30.2-41.6-41.4-67.2c-5.5-12.5-14.6-24.7-25.1-48.2
				c-4.2-9.4-12.4-20.6-17-29.9c-4.4-9-12.8-31.5-14.3-41.4c-1.9-13.1,14.7-26.5,29.2-21c5.2,2,22.2,31.9,31.9,45.5
				c13.1,18.4,28.6,44.7,44.1,61.1c19.6,20.8,33.9,65,44.8,70.6c1.7,0.9,4.6-1.7,5.4-3.4c1.5-3.1-2.1-8.1-1.4-11.5
				c2-8.7,9.4-19.4,16.3-25.1c20-16.6,36.6,4.4,46.8,8.1c3.6,1.3,9.9-9.7,21.7-10.9c11-1,22.8,3.8,29.2,11.5
				c7.8,9.4,11,27.5,20.4,35.3c2.3,1.9,7.6,1.1,9.5,3.4c22.5,27.4,42.8,49.3,58.4,70.6c15.3,21,39,60,37.3,71.3
				c-1,6.4,24.6,44.4,42.1,83.5c10.6,23.8,45.5,74,45.5,74L496.8,1290.1z"/>
			<path id="path3277"  sodipodi:nodetypes="cc" class="st12" d="M390.9,870
				c-9.8,6.8-13.7,20.3-19,21"/>
			<path id="path3279"  class="st12" d="M451.3,898.5l-8.1-9.5l-3.4-12.2"/>
		</g>
	</g>
	<g id="arrows" class="st3">
		<g id="g12151_1_" class="st4">
			<path id="path3504_1_"  class="st5" d="M637.5,1345.2l4-3.1l-125.4-161.5l-4,3.1L637.5,1345.2z"
				/>
			<path id="path12157_1_"  class="st6" d="M544.7,1221.6l28.1,3.5l-58.7-43.1l27.1,67.6
				L544.7,1221.6L544.7,1221.6z"/>
		</g>
		<g id="g12159_1_" class="st4">
			<path id="path3506_1_"  class="st5" d="M508.8,696.9l122.7-191.4l-4.2-2.6L504.6,694.2
				L508.8,696.9z"/>
			<path id="path12165_1_"  class="st6" d="M602.5,546.2l6,27.6l20.9-69.7l-54.6,48.1L602.5,546.2
				L602.5,546.2z"/>
		</g>
		<g id="g12183" class="st4">
			<path id="path3512"  class="st5" d="M1330.2,1240.5l1.4-4.9l-711.5-217.2l-1.4,4.7
				L1330.2,1240.5z"/>
			<path id="path12189"  class="st6" d="M1283.1,1223.4l-25,13.3l72.8,1.3l-61.1-39.6
				L1283.1,1223.4L1283.1,1223.4z"/>
		</g>
		<g id="g12215_1_" class="st4">
			<path id="path3520_1_"  class="st5" d="M613.1,844.4l708.5-249.2l-1.7-4.7L611.5,839.7
				L613.1,844.4z"/>
			<path id="path12221_1_"  class="st6" d="M659.5,825.4l12.2-25.5L612.3,842l72.7-4.4L659.5,825.4
				L659.5,825.4z"/>
		</g>
	</g>
</g>
<g id="lizard" transform="matrix(0,0.283393,-0.283393,0,42.399766,213.24694)">
	
		<path id="path3414" sodipodi:cx="-126.15619" sodipodi:cy="-211.35745" sodipodi:rx="343.83746" sodipodi:ry="343.83746" sodipodi:type="arc" class="st0" d="
		M954.2-803.9c166,0,300.5,134.6,300.5,300.5s-134.6,300.5-300.5,300.5S653.7-337.3,653.7-503.3S788.2-803.9,954.2-803.9z"/>
	<g>
		<defs>
			<path id="SVGID_7_" d="M954.2-803.9c166,0,300.6,134.5,300.6,300.5c0,166-134.5,300.6-300.5,300.6c0,0-0.1,0-0.1,0
				c-166,0-300.6-134.5-300.6-300.5C653.6-669.3,788.2-803.8,954.2-803.9C954.2-803.9,954.2-803.9,954.2-803.9z"/>
		</defs>
		<clipPath id="SVGID_8_">
			<use xlink:href="#SVGID_7_"  style="overflow:visible;"/>
		</clipPath>
		<path id="path3382"  sodipodi:nodetypes="csssccsssssssssssssss" class="st13" d="M858.5-518.8
			c0.7,4.5,4.6,27.3,7.6,38.1c3.8,13.3,10.8,30.4,15.1,43.5c3.5,10.9,3.6,26.2,12.2,33.9c9.6,8.6,40.6,6.4,42.3,6.8l26.6-58.2
			c-5.3,0.6-37.4-31.3-42.1-35c0,0-1.8-25.7-3.9-30.7c-2.1-5-12.1-38.1-12.1-38.1l-0.5,0.2c-0.9,0.3,4.8-28.4,4.6-31.7
			c-0.1-3.3,0.1-26.6,0.1-26.6c8.5-13.3,8.2-25.9,9.3-32c5.7-32.1-14.4-31.8-18.9-29.8c-2.6,1.1-18.2,35.4-25.5,50.8
			c-1.8,3.8-4.2,7.6-5.4,11.6c-0.9,3.2-1.5,9-2.1,12.3c-0.9,5.4-4.9,17.5-5.8,22.9c-1.2,7-2,16.4-2.8,23.5c-0.5,4.8-4.3,13.5-4,18.3
			C853.7-535.4,857.2-527.3,858.5-518.8z"/>
		<path id="path3380"  sodipodi:nodetypes="csssccsssssssssssssss" class="st13" d="M828.6-513.6
			c0.9,5.3,5.4,32.2,9,44.9c4.5,15.7,12.7,35.8,17.8,51.4c4.2,12.9,4.3,31,14.4,40c11.3,10.1,48,7.5,50,8l31.4-68.6
			c-6.3,0.7-38.7-38.5-44.2-42.9c0,0-7.6-28.7-10.1-34.6c-2.5-5.9-14.2-44.9-14.2-44.9l-0.6,0.2c-1.1,0.4,5.6-33.5,5.5-37.4
			c-0.2-3.9,0.2-31.4,0.2-31.4c10.1-15.7,9.7-30.6,11-37.8c6.7-37.9-17-37.5-22.4-35.2c-3.1,1.3-21.5,41.8-30.1,60
			c-2.1,4.5-4.9,8.9-6.3,13.7c-1.1,3.8-1.8,10.6-2.4,14.5c-1.1,6.4-5.8,20.7-6.9,27c-1.4,8.3-2.4,19.3-3.3,27.7
			c-0.6,5.7-5,15.9-4.7,21.6C822.9-533.2,827-523.6,828.6-513.6z"/>
		<path id="path3378"  sodipodi:nodetypes="csssccsssssssssssssss" class="st13" d="M810-533.4
			c0.9,5.3,5.4,32.2,9,44.9c4.5,15.7,11.1,36.5,17.8,51.4c9.1,20.3,14.5,66.7,28,67.2c42.2,1.5,83.9,7.5,85.9,8l-45.3-86
			c-6.3,0.7-12.8-34.8-18.2-39.2c0,0-6.4-42.3-8.9-48.3c-2.5-5.9-14.2-44.9-14.2-44.9l-0.6,0.2c-1.1,0.4,5.6-33.5,5.5-37.4
			c-0.2-3.9,0.2-31.4,0.2-31.4c10.1-15.7,9.7-30.6,11-37.8c6.7-37.9-17-37.5-22.4-35.2c-3.1,1.3-21.5,41.8-30.1,60
			c-2.1,4.5-4.9,8.9-6.3,13.7c-1.1,3.8-1.8,10.6-2.4,14.5c-1.1,6.4-5.8,20.7-6.9,27c-1.4,8.3-2.4,19.3-3.3,27.7
			c-0.6,5.7-5,15.9-4.7,21.6C804.3-553,808.4-543.4,810-533.4z"/>
		
			<path id="path3373"  sodipodi:nodetypes="csssssccsssssssssssssssssssssssssssss" class="st13" d="
			M818.5-516.4c0.9,5.3,5.4,32.2,9,44.9c4.5,15.7,12.7,35.8,17.8,51.4c4.2,12.9,4.3,31,14.4,40c11.3,10.1,48,7.5,50,8
			c2,0.5,122,37.4,122,37.4l112,102.4l83-95.9c0,0-75.1-71.9-82.1-83.5c-10.7-17.8-6.3-39.3-24.3-63.2c-18.4-24.5-44-56.2-47.4-62.6
			c-3.5-6.4-31.2-42.5-31.2-42.5s-24.2-35.6-26.1-42c-2-6.4-21.9-31.1-21.9-31.1s-26.5-8-34.1-11.3c-17.1-7.6-35-27.4-49-15
			c-9.5,8.5-3.3,37.6,1.1,42.6c3.4,3.8,27,24.9,42,30c4.1,1.4,5.9,3.9,5.9,3.9s17,28,18.9,41.5c1.7,12.1,5.7,24.7,0.4,35.7
			c-9.2,18.9-42.4,59.2-51.3,60.1c-6.3,0.7-23.9-7.6-29.3-12c0,0-8.9-34.9-11.3-40.8c-2.5-5.9-14.2-44.9-14.2-44.9l-0.6,0.2
			c-1.1,0.4,5.6-33.5,5.5-37.4c-0.2-3.9,0.2-31.4,0.2-31.4c10.1-15.7,9.7-30.6,11-37.8c6.7-37.9-17-37.5-22.4-35.2
			c-3.1,1.3-21.5,41.8-30.1,60c-2.1,4.5-4.9,8.9-6.3,13.7c-1.1,3.8-1.8,10.6-2.4,14.5c-1.1,6.4-5.8,20.7-6.9,27
			c-1.4,8.3-2.4,19.3-3.3,27.7c-0.6,5.7-5,15.9-4.7,21.6C812.8-536,816.9-526.4,818.5-516.4z"/>
	</g>
	<g id="arrows_2_" class="st3">
		<g id="g12183_1_" class="st4">
			<path id="path3512_1_"  class="st5" d="M662.3-590l1.4-4.9L-47.7-812.1l-1.4,4.7L662.3-590z"/>
			<path id="path12189_1_"  class="st6" d="M615.2-607.1l-25,13.3l72.8,1.3L601.9-632L615.2-607.1
				L615.2-607.1z"/>
		</g>
		<g id="g12191_1_" class="st4">
			<path id="path3514_1_"  class="st5" d="M772.2-745.1l4-3.1l-466.1-587l-3.9,3.1L772.2-745.1z"/>
			<path id="path12197_1_"  class="st6" d="M339.2-1294.4l28.1,3.2l-59.2-42.4l27.9,67.3
				L339.2-1294.4L339.2-1294.4z"/>
		</g>
		<g id="g12167" class="st4">
			<path id="path3508"  class="st5" d="M945.4-808.8l5-0.1l-4.6-222.5l-5,0.1L945.4-808.8z"/>
			<path id="path12173"  class="st6" d="M946.8-858.8l-20.4-19.6l21.4,69.6l18.5-70.4L946.8-858.8z
				"/>
		</g>
		<g id="g12143_1_" class="st4">
			<path id="path3502_1_"  class="st5" d="M432.5-330.5l236.1-76.1l-1.5-4.7L431-335.3L432.5-330.5
				z"/>
			<path id="path12149_1_"  class="st6" d="M479.3-348.3l12.9-25.2L431.7-333l72.8-2.4L479.3-348.3
				L479.3-348.3z"/>
		</g>
	</g>
</g>
<g id="spock" transform="matrix(0,0.283393,-0.283393,0,245.69481,-74.870476)">
	
		<path id="use3418" sodipodi:cx="-126.15619" sodipodi:cy="-211.35745" sodipodi:rx="343.83746" sodipodi:ry="343.83746" sodipodi:type="arc" class="st0" d="
		M1162,175.7c166,0,300.5,134.6,300.5,300.5S1328,776.8,1162,776.8S861.5,642.2,861.5,476.3S996,175.7,1162,175.7z"/>
	<g>
		<defs>
			<circle id="SVGID_9_" cx="1162" cy="476.3" r="85.2"/>
		</defs>
		<clipPath id="SVGID_10_">
			<use xlink:href="#SVGID_9_"  style="overflow:visible;"/>
		</clipPath>
		
			<path id="path3403"  sodipodi:nodetypes="ccsssssscsssssssscssscssssssssscssssssssssssc" class="st14" d="
			M1515.7,532.5c-11.2,2.2-138.3-0.8-156.2,2.2c-14.5,14.1-26.3,45.9-48.3,66.2c-19.4,17.9-46.3,25.1-66.9,41.6
			c-10.7,8.6-31.4,25.9-40.2,36.4c-7.4,9-18.8,32.5-30.5,32.7c-11.1,0.2-15.6-15-17.1-26c-2.7-19.1,17-56.8,26-64
			c2.5-2,26.7-29.5,41.6-40.2c-2.3-11.1-42.2-2.9-53.5-3.7c-16-1.1-34.2-1.5-37.2-0.7c-3,0.7-23.8,4.5-32,5.2
			c-8.2,0.7-32,6.7-35.7,6.7s-31.2,3.7-36.4,3.7c-5.2,0-19.4,0.1-30.5,1.5c-10.9,1.4-35.3,3.4-52.8,1.5
			c-13.1-1.5-25.8-17.3-15.6-31.2c4.2-5.7,14.7-8.1,20.8-11.2c-7.3,1.6-28.8,5.8-40.9,3.7c-23.9-4.1-22.8-29.7-10.4-36.4
			c12.6-6.8,41.8-11,58.8-16.4c20.4-6.4,49-10.1,71.4-14.1c16.7-8.2,42.7-11.9,58-20.8c4.3-2.5,9.3-7.6,8.9-12.6
			c-0.3-5.2,0-5.2-16.4-13.4c-16.4-8.2-14.2-7.1-20.8-11.2c-9.7-5.9-20.1-8.9-26.8-13.4c-3.7-2.5-21.9-10.4-32.7-14.1
			c-9.3-3.2-18.8-6.9-28.3-9.7c-14-4-31-9-44.6-14.1c-18.9-7.2-19.4-27.3-0.7-36.4c13.8-6.8,34.7,2.4,52.8,5.2
			c-12.9-9.3-1.1-26.7,8.2-29c11.5-2.8,27.7-1,39.4,0.7c6.6,1,15,4.5,21.6,5.9c8.2,1.8,17.2,3.7,25.3,5.9c7.6,2.1,19.2,5.9,26.8,8.2
			c10.3,3.1,24.5,4.9,35,7.4c6.5,1.6,14.9,5,21.6,5.9c15.7,2.2,37,0.5,52.8,0.7c12.7,0.2,29.7,0.2,42.4,0.7
			c23.5,1,54.9,1.3,78.1,5.2c11.6,2,26.2,8.9,37.9,10.4c44,5.6,148.7-7.4,148-2.2C1515.7,374.8,1517.2,533.9,1515.7,532.5
			L1515.7,532.5z"/>
		<path id="path3405"  sodipodi:nodetypes="ccc" class="st14" d="M949.8,553.3
			c33.7-6.1,81.8-17.3,160.6-30.5l0,0"/>
		<path id="path3407"  sodipodi:nodetypes="cc" class="st14" d="M978.1,349.5
			c87.5,31.1,37.7,18.2,148.7,54.3"/>
	</g>
	<g id="arrows_1_" class="st3">
		<g id="g12151" class="st4">
			<path id="path3504"  class="st5" d="M986.3,232.1l4-3.1L864.9,67.5l-4,3.1L986.3,232.1z"/>
			<path id="path12157"  class="st6" d="M893.5,108.5l28.1,3.5L862.9,69l27.1,67.6L893.5,108.5
				L893.5,108.5z"/>
		</g>
		<g id="g12207_1_" class="st4">
			<path id="path3518_1_"  class="st5" d="M1155.5,170.8l5-0.1l-9.4-724.7l-5,0.1L1155.5,170.8z"/>
			<path id="path12213_1_"  class="st6" d="M1157.4,120.7l-20.3-19.7l20.9,69.7l19.1-70.3
				L1157.4,120.7z"/>
		</g>
		<g id="g12199_1_" class="st4">
			<path id="path3516_1_"  class="st5" d="M1341.7,234.4l429.2-606.8l-4.1-3l-429.2,606.9
				L1341.7,234.4z"/>
			<path id="path12205_1_"  class="st6" d="M1739.9-333.1l4.8,27.9l24.1-68.7l-56.7,45.6
				L1739.9-333.1L1739.9-333.1z"/>
		</g>
		<g id="g12143" class="st4">
			<path id="path3502"  class="st5" d="M1449.2,386.8l236.1-76.1l-1.5-4.7l-236.1,76.1
				L1449.2,386.8z"/>
			<path id="path12149"  class="st6" d="M1496,369.1l12.9-25.2l-60.5,40.5l72.8-2.4L1496,369.1
				L1496,369.1z"/>
		</g>
	</g>
</g>
</svg>
